<?xml version="1.0" standalone="no"?><!DOCTYPE svg PUBLIC "-//W3C//DTD SVG 1.1//EN" "http://www.w3.org/Graphics/SVG/1.1/DTD/svg11.dtd"><svg xmlns="http://www.w3.org/2000/svg" width="797" height="962" viewBox="0 0 797 962" style="font-family: &quot;Helvetica Neue&quot;, Helvetica, Arial, sans-serif;"><g class="sankey" transform="translate(175,-50)"><g class="groups"><g class="group" transform="translate(0,106.2)" style="display: none;"><rect x="-10" y="-20" width="21" height="879.5999999999999" style="fill: rgb(238, 238, 238); stroke: rgb(187, 187, 187); stroke-width: 0.5;"/><text x="-10" y="-25" style="fill: rgb(153, 153, 153);"/></g><g class="group" transform="translate(446,106.2)" style="display: none;"><rect x="-10" y="-20" width="21" height="879.6000000000001" style="fill: rgb(238, 238, 238); stroke: rgb(187, 187, 187); stroke-width: 0.5;"/><text x="-10" y="-25" style="fill: rgb(153, 153, 153);"/></g></g><g class="links"><g class="link" style="opacity: 0.8;"><path d="M1,237.2245901639344 A142.90049189238917 142.90049189238917 1.1911907577199368 0 1 133.72752960320804,327.17271224612233 L315.1300921284674,781.8665073296941 A140.90049189238917 140.90049189238917 1.1911907577199368 0 0 446,870.5557377049181 L446,872.5557377049181 A142.90049189238917 142.90049189238917 1.1911907577199368 0 1 313.2724703967919,782.6076156227302 L131.86990787153258,327.9138205391585 A140.90049189238917 140.90049189238917 1.1911907577199368 0 0 1,239.2245901639344 Z" style="fill: rgb(0, 167, 108);"/><title>Bioenergy → Mineral &amp; metal 
depletion
Bioenergy
1.00</title><text class="label" dy="0.35em" x="5" y="238.2245901639344"/></g><g class="link" style="opacity: 0.8;"><path d="M1,420.3663934426229 A162.02324985404522 162.02324985404522 0.6008850300824189 0 1 92.60352207249831,448.74710427117793 L355.5272233255235,628.9647000063252 A160.02324985404522 160.02324985404522 0.6008850300824189 0 0 446,656.9950819672131 L446,658.9950819672131 A162.02324985404522 162.02324985404522 0.6008850300824189 0 1 354.39647792750173,630.6143711386582 L91.47277667447652,450.3967754035108 A160.02324985404522 160.02324985404522 0.6008850300824189 0 0 1,422.3663934426229 Z" style="fill: rgb(228, 89, 3);"/><title>Solar, hydro &amp;
 wind power → Acidification
Solar, hydro &amp;
 wind power
1.00</title><text class="label" dy="0.35em" x="5" y="421.3663934426229"/></g><g class="link" style="opacity: 0.8;"><path d="M1,432.9401639344262 A136.0618457014599 136.0618457014599 1.0806008122790558 0 1 121.03931535018671,504.9443120036241 L318.47221192970903,874.9187352035293 A144.54985995587333 144.54985995587333 1.0806008122790558 0 0 446,951.4147540983607 L446,953.4147540983607 A146.54985995587333 146.54985995587333 1.0806008122790558 0 1 316.707730274601,875.8603319796426 L119.27483369507863,505.8859087797374 A134.0618457014599 134.0618457014599 1.0806008122790558 0 0 1,434.9401639344262 Z" style="fill: rgb(228, 89, 3);"/><title>Solar, hydro &amp;
 wind power → Environmental effects 
of mining
Solar, hydro &amp;
 wind power
1.00</title><text class="label" dy="0.35em" x="5" y="433.9401639344262"/></g><g class="link" style="opacity: 0.8;"><path d="M1,725.5463114754098 A136.39154537993625 136.39154537993625 0.954266757287224 0 0 112.28049709090239,668.0173340116204 L322.60378667960265,371.2367341190279 A151.24123875051603 151.24123875051603 0.954266757287224 0 1 446,307.44426229508196 L446,309.44426229508196 A149.24123875051603 149.24123875051603 0.954266757287224 0 0 324.23556666685795,372.3931484363005 L113.91227707815769,669.1737483288929 A138.39154537993625 138.39154537993625 0.954266757287224 0 1 1,727.5463114754098 Z" style="fill: rgb(209, 99, 230);"/><title>Electric vehicles → Land use &amp; 
degradation 
Electric vehicles
1.00</title><text class="label" dy="0.35em" x="5" y="726.5463114754098"/></g><g class="link" style="opacity: 0.8;"><path d="M1,867.0979508196722 A791.6101076823691 791.6101076823691 0.10368135135670986 0 0 82.92823574563076,862.84692689293 L363.8647728707309,833.6142231393143 A793.6101076823691 793.6101076823691 0.10368135135670986 0 1 446,829.3524590163935 L446,831.3524590163935 A791.6101076823691 791.6101076823691 0.10368135135670986 0 0 364.0717642543692,835.6034829431356 L83.13522712926908,864.8361866967514 A793.6101076823691 793.6101076823691 0.10368135135670986 0 1 1,869.0979508196722 Z" style="fill: rgb(135, 133, 0);"/><title>General mitigation → Ecotoxicity
General mitigation
1.00</title><text class="label" dy="0.35em" x="5" y="868.0979508196722"/></g><g class="link" style="opacity: 0.8;"><path d="M1,863.2290983606557 A151.5332272032502 151.5332272032502 1.0173237312571572 0 0 129.90996859770038,791.3484853189743 L325.46833831694505,474.8563831465322 A141.6845560796255 141.6845560796255 1.0173237312571572 0 1 446,407.64754098360663 L446,409.64754098360663 A139.6845560796255 139.6845560796255 1.0173237312571572 0 0 327.16974692516794,475.9076722351587 L131.61137720592328,792.3997744076007 A153.5332272032502 153.5332272032502 1.0173237312571572 0 1 1,865.2290983606557 Z" style="fill: rgb(135, 133, 0);"/><title>General mitigation → Eutrophication &amp; 
biogeochemical flows
General mitigation
1.00</title><text class="label" dy="0.35em" x="5" y="864.2290983606557"/></g><g class="link" style="opacity: 0.8;"><path d="M1,868.0651639344263 A845.9688959764121 845.9688959764121 0.09719916270189422 0 1 83.09805307948803,872.0582392128168 L364.0960392883755,899.4573485695219 A843.9688959764121 843.9688959764121 0.09719916270189422 0 0 446,903.4409836065574 L446,905.4409836065574 A845.9688959764121 845.9688959764121 0.09719916270189422 0 1 363.901946920512,901.4479083281669 L82.90396071162446,874.0487989714619 A843.9688959764121 843.9688959764121 0.09719916270189422 0 0 1,870.0651639344263 Z" style="fill: rgb(135, 133, 0);"/><title>General mitigation → Mineral &amp; metal 
depletion
General mitigation
1.00</title><text class="label" dy="0.35em" x="5" y="869.0651639344263"/></g><g class="link" style="opacity: 0.8;"><path d="M1,299.7790983606557 A171.21379438210283 171.21379438210283 0.7046463437801033 0 1 111.90620769865683,340.5552582938796 L350.54074745351323,543.4572193877696 A147.36723197471076 147.36723197471076 0.7046463437801033 0 0 446,578.5540983606559 L446,580.5540983606559 A149.36723197471076 149.36723197471076 0.7046463437801033 0 1 349.245218572807,544.9809007584163 L110.6106788179506,342.07893966452633 A169.21379438210283 169.21379438210283 0.7046463437801033 0 0 1,301.7790983606557 Z" style="fill: rgb(184, 0, 88);"/><title>Low-carbon
 electricity systems → Air pollution
Low-carbon
 electricity systems
2.00</title><text class="label" dy="0.35em" x="5" y="300.7790983606557"/></g><g class="link" style="opacity: 0.8;"><path d="M1,418.91557377049173 A209.07704875680886 209.07704875680886 0.4274607745273604 0 1 87.67527236850746,437.7280449604238 L360.15385041549854,561.856010705941 A207.07704875680886 207.07704875680886 0.4274607745273604 0 0 446,580.488524590164 L446,582.488524590164 A209.07704875680886 209.07704875680886 0.4274607745273604 0 1 359.3247276314925,563.676053400232 L86.84614958450142,439.54808765471483 A207.07704875680886 207.07704875680886 0.4274607745273604 0 0 1,420.91557377049173 Z" style="fill: rgb(228, 89, 3);"/><title>Solar, hydro &amp;
 wind power → Air pollution
Solar, hydro &amp;
 wind power
2.00</title><text class="label" dy="0.35em" x="5" y="419.91557377049173"/></g><g class="link" style="opacity: 0.8;"><path d="M1,387.96475409836063 A999 999 0.013793834310774411 0 0 14.779603492880723,387.86971580772115 L432.1928097133397,382.1116220001106 A1001 1001 0.013793834310774411 0 1 446,382.016393442623 L446,384.016393442623 A999 999 0.013793834310774411 0 0 432.22039650711923,384.11143173326246 L14.807190286660264,389.86952554087304 A1001 1001 0.013793834310774411 0 1 1,389.96475409836063 Z" style="fill: rgb(228, 89, 3);"/><title>Solar, hydro &amp;
 wind power → Eutrophication &amp; 
biogeochemical flows
Solar, hydro &amp;
 wind power
2.00</title><text class="label" dy="0.35em" x="5" y="388.96475409836063"/></g><g class="link" style="opacity: 0.8;"><path d="M1,649.450819672131 A249.36233234150228 249.36233234150228 0.3449172492194399 0 0 85.31409291606107,634.7642349624103 L361.00966948121555,535.7125745601854 A251.36233234150228 251.36233234150228 0.3449172492194399 0 1 446,520.9081967213116 L446,522.9081967213116 A249.36233234150228 249.36233234150228 0.3449172492194399 0 0 361.68590708393896,537.5947814310323 L85.99033051878442,636.6464418332572 A251.36233234150228 251.36233234150228 0.3449172492194399 0 1 1,651.450819672131 Z" style="fill: rgb(235, 172, 35);"/><title>CCS &amp; CCU → Biodiversity &amp; 
ecosystem functioning
CCS &amp; CCU
2.00</title><text class="label" dy="0.35em" x="5" y="650.450819672131"/></g><g class="link" style="opacity: 0.8;"><path d="M1,733.7676229508197 A489.0601717854603 489.0601717854603 0.16905764274827617 0 0 83.28608616715579,726.7954635138468 L363.37740683058007,678.9875571639114 A491.0601717854603 491.0601717854603 0.16905764274827617 0 1 446,671.9868852459017 L446,673.9868852459017 A489.0601717854603 489.0601717854603 0.16905764274827617 0 0 363.71391383284424,680.9590446828746 L83.62259316941993,728.76695103281 A491.0601717854603 491.0601717854603 0.16905764274827617 0 1 1,735.7676229508197 Z" style="fill: rgb(209, 99, 230);"/><title>Electric vehicles → Acidification
Electric vehicles
2.00</title><text class="label" dy="0.35em" x="5" y="734.7676229508197"/></g><g class="link" style="opacity: 0.8;"><path d="M1,724.0954918032787 A134.94072570780511 134.94072570780511 1.1251918607150106 0 0 122.76380477359272,647.314677560395 L299.1183816079289,278.0980862054153 A162.77671526293716 162.77671526293716 1.1251918607150106 0 1 446,185.47868852459015 L446,187.47868852459015 A160.77671526293716 160.77671526293716 1.1251918607150106 0 0 300.9230822145827,278.9600930037315 L124.56850538024658,648.1766843587111 A136.94072570780511 136.94072570780511 1.1251918607150106 0 1 1,726.0954918032787 Z" style="fill: rgb(209, 99, 230);"/><title>Electric vehicles → Freshwater use
Electric vehicles
2.00</title><text class="label" dy="0.35em" x="5" y="725.0954918032787"/></g><g class="link" style="opacity: 0.8;"><path d="M1,800.6745901639345 A139.42492319565017 139.42492319565017 1.1976302347199783 0 0 130.82938862873334,712.0791766688734 L296.22723647799296,289.6178624978888 A160.84228903342898 160.84228903342898 1.1976302347199783 0 1 446,187.41311475409836 L446,189.41311475409836 A158.84228903342898 158.84228903342898 1.1976302347199783 0 0 298.08959201175287,290.3469933955154 L132.69174416249325,712.8083075665 A141.42492319565017 141.42492319565017 1.1976302347199783 0 1 1,802.6745901639345 Z" style="fill: rgb(103, 78, 167);"/><title>Carbon pricing → Freshwater use
Carbon pricing
2.00</title><text class="label" dy="0.35em" x="5" y="801.6745901639345"/></g><g class="link" style="opacity: 0.8;"><path d="M1,933.5213114754098 A168.51442018096998 168.51442018096998 0.9515979110089815 0 0 138.22869750918068,862.8097255522581 L335.98500506835177,585.33473501127 A135.09647339528803 135.09647339528803 0.9515979110089815 0 1 446,528.6459016393444 L446,530.6459016393444 A133.09647339528803 133.09647339528803 0.9515979110089815 0 0 337.6136929558549,586.4955001749016 L139.8573853966838,863.9704907158897 A170.51442018096998 170.51442018096998 0.9515979110089815 0 1 1,935.5213114754098 Z" style="fill: rgb(0, 187, 173);"/><title>Other → Biodiversity &amp; 
ecosystem functioning
Other
2.00</title><text class="label" dy="0.35em" x="5" y="934.5213114754098"/></g><g class="link" style="opacity: 0.8;"><path d="M1,234.83934426229507 A145.28573779402853 145.28573779402853 1.1285995452891455 0 1 132.31125257292086,317.9535407043047 L323.2441381600056,721.2190190659431 A135.81986011489244 135.81986011489244 1.1285995452891455 0 0 446,798.9180327868853 L446,801.8196721311476 A138.72149945915476 138.72149945915476 1.1285995452891455 0 1 320.62159652174705,722.4607059184833 L129.6887109346623,319.1952275568449 A142.3840984497662 142.3840984497662 1.1285995452891455 0 0 1,237.7409836065574 Z" style="fill: rgb(0, 167, 108);"/><title>Bioenergy → Ecotoxicity
Bioenergy
3.00</title><text class="label" dy="0.35em" x="5" y="236.29016393442623"/></g><g class="link" style="opacity: 0.8;"><path d="M1,296.9102459016393 A199.29418560181455 199.29418560181455 0.45462625564633186 0 1 88.51537077574605,317.15351055448417 L359.7588161369518,449.7301572730016 A196.39254625755223 196.39254625755223 0.45462625564633186 0 0 446,469.6786885245902 L446,472.5803278688525 A199.29418560181455 199.29418560181455 0.45462625564633186 0 1 358.484629224254,452.33706321600766 L87.2411838630482,319.7604164974902 A196.39254625755223 196.39254625755223 0.45462625564633186 0 0 1,299.81188524590164 Z" style="fill: rgb(184, 0, 88);"/><title>Low-carbon
 electricity systems → Biodiversity &amp; 
ecosystem functioning
Low-carbon
 electricity systems
3.00</title><text class="label" dy="0.35em" x="5" y="298.3610655737705"/></g><g class="link" style="opacity: 0.8;"><path d="M1,730.8987704918032 A247.99945594779808 247.99945594779808 0.346334963729507 0 0 85.18407924472605,716.1733399993085 L360.83095151183977,616.6977207433541 A250.9010952920604 250.9010952920604 0.346334963729507 0 1 446,601.8000000000001 L446,604.7016393442624 A247.99945594779808 247.99945594779808 0.346334963729507 0 0 361.81592075527396,619.4270698367571 L86.16904848816024,718.9026890927115 A250.9010952920604 250.9010952920604 0.346334963729507 0 1 1,733.8004098360656 Z" style="fill: rgb(209, 99, 230);"/><title>Electric vehicles → Air pollution
Electric vehicles
3.00</title><text class="label" dy="0.35em" x="5" y="732.3495901639344"/></g><g class="link" style="opacity: 0.8;"><path d="M1,757.980737704918 A183.07976334877466 183.07976334877466 0.5070689390520497 0 1 89.90666122127442,781.0173651861121 L358.50242442231576,930.2268417121336 A180.17812400451234 180.17812400451234 0.5070689390520497 0 0 446,952.8983606557379 L446,955.8000000000002 A183.07976334877466 183.07976334877466 0.5070689390520497 0 1 357.0933387787256,932.7633725188061 L88.49757557768422,783.5538959927846 A180.17812400451234 180.17812400451234 0.5070689390520497 0 0 1,760.8823770491804 Z" style="fill: rgb(209, 99, 230);"/><title>Electric vehicles → Environmental effects 
of mining
Electric vehicles
3.00</title><text class="label" dy="0.35em" x="5" y="759.4315573770492"/></g><g class="link" style="opacity: 0.8;"><path d="M1,805.5434426229508 A146.03289860658944 146.03289860658944 0.6966463018583197 0 0 94.70186618744331,771.5175426746277 L350.43629977273014,557.5773964125118 A148.93453795085176 148.93453795085176 0.6966463018583197 0 1 446,522.8754098360656 L446,525.7770491803279 A146.03289860658944 146.03289860658944 0.6966463018583197 0 0 352.2981338125567,559.802949128651 L96.56370022726985,773.7430953907669 A148.93453795085176 148.93453795085176 0.6966463018583197 0 1 1,808.4450819672131 Z" style="fill: rgb(103, 78, 167);"/><title>Carbon pricing → Biodiversity &amp; 
ecosystem functioning
Carbon pricing
3.00</title><text class="label" dy="0.35em" x="5" y="806.994262295082"/></g><g class="link" style="opacity: 0.8;"><path d="M1,802.6418032786885 A141.39213631040425 141.39213631040425 1.0650302621880117 0 0 124.6903484287685,729.7510094076101 L314.9914857416744,386.1312620796934 A149.757632193139 149.757632193139 1.0650302621880117 0 1 446,308.92786885245897 L446,311.8295081967213 A146.85599284887667 146.85599284887667 1.0650302621880117 0 0 317.52985025664645,387.5370417471027 L127.22871294374058,731.1567890750193 A144.29377565466658 144.29377565466658 1.0650302621880117 0 1 1,805.5434426229508 Z" style="fill: rgb(103, 78, 167);"/><title>Carbon pricing → Land use &amp; 
degradation 
Carbon pricing
3.00</title><text class="label" dy="0.35em" x="5" y="804.0926229508196"/></g><g class="link" style="opacity: 0.8;"><path d="M1,864.7127049180328 A153.01683376062724 153.01683376062724 0.8169239484288096 0 0 112.55597797889236,816.4308471267556 L343.9852737610059,569.9294163965353 A139.92948373418096 139.92948373418096 0.8169239484288096 0 1 446,525.7770491803279 L446,528.6786885245903 A137.02784438991864 137.02784438991864 0.8169239484288096 0 0 346.1006960111982,571.9154928269786 L114.67140022908468,818.4169235571989 A155.91847310488956 155.91847310488956 0.8169239484288096 0 1 1,867.6143442622952 Z" style="fill: rgb(135, 133, 0);"/><title>General mitigation → Biodiversity &amp; 
ecosystem functioning
General mitigation
3.00</title><text class="label" dy="0.35em" x="5" y="866.163524590164"/></g><g class="link" style="opacity: 0.8;"><path d="M1,935.4885245901638 A170.48163329572407 170.48163329572407 0.8077850861346181 0 0 124.21700171448902,882.8269141244721 L343.749235132113,653.2385730966693 A141.47298796319126 141.47298796319126 0.8077850861346181 0 1 446,609.5377049180329 L446,612.4393442622952 A138.57134861892894 138.57134861892894 0.8077850861346181 0 0 345.8464188177984,655.2438988738601 L126.31418540017444,884.8322399016629 A173.3832726399864 173.3832726399864 0.8077850861346181 0 1 1,938.3901639344261 Z" style="fill: rgb(0, 187, 173);"/><title>Other → Air pollution
Other
3.00</title><text class="label" dy="0.35em" x="5" y="936.939344262295"/></g><g class="link" style="opacity: 0.8;"><path d="M1,952.8983606557376 A624.9117132335174 624.9117132335174 0.13159254803141618 0 0 82.99659531106253,947.4954913412104 L363.62267163175244,910.352546507306 A627.8133525777797 627.8133525777797 0.13159254803141618 0 1 446,904.9245901639346 L446,907.8262295081969 A624.9117132335174 624.9117132335174 0.13159254803141618 0 0 364.00340468893745,913.2290988227242 L83.37732836824757,950.3720436566285 A627.8133525777797 627.8133525777797 0.13159254803141618 0 1 1,955.8 Z" style="fill: rgb(0, 187, 173);"/><title>Other → Mineral &amp; metal 
depletion
Other
3.00</title><text class="label" dy="0.35em" x="5" y="954.3491803278688"/></g><g class="link" style="opacity: 0.8;"><path d="M1,308.5168032786885 A162.47608946407007 162.47608946407007 1.078078931974041 0 1 144.14967660572077,394.1381613645665 L323.77932216770853,728.7164652618758 A138.72149945915476 138.72149945915476 1.078078931974041 0 0 446,801.8196721311476 L446,805.688524590164 A142.59035191817117 142.59035191817117 1.078078931974041 0 1 320.3706668992918,730.5465167941372 L140.7410213373041,395.96821289682794 A158.60723700505366 158.60723700505366 1.078078931974041 0 0 1,312.38565573770484 Z" style="fill: rgb(184, 0, 88);"/><title>Low-carbon
 electricity systems → Ecotoxicity
Low-carbon
 electricity systems
4.00</title><text class="label" dy="0.35em" x="5" y="310.45122950819666"/></g><g class="link" style="opacity: 0.8;"><path d="M1,425.7188524590163 A143.28315717686976 143.28315717686976 0.8880249491578028 0 1 112.16295802669949,478.59813862736223 L335.37453907631533,753.0649212826335 A142.59035191817117 142.59035191817117 0.8880249491578028 0 0 446,805.688524590164 L446,809.5573770491803 A146.45920437718758 146.45920437718758 0.8880249491578028 0 1 332.37297844639255,755.5059565413986 L109.16139739677668,481.0391738861274 A139.41430471785335 139.41430471785335 0.8880249491578028 0 0 1,429.58770491803267 Z" style="fill: rgb(228, 89, 3);"/><title>Solar, hydro &amp;
 wind power → Ecotoxicity
Solar, hydro &amp;
 wind power
4.00</title><text class="label" dy="0.35em" x="5" y="427.6532786885245"/></g><g class="link" style="opacity: 0.8;"><path d="M1,421.8499999999999 A147.15200963588617 147.15200963588617 0.7413350128684683 0 1 100.36780482601287,460.4674377062961 L348.9984532516627,688.0988855232417 A143.64786025815977 143.64786025815977 0.7413350128684683 0 0 446,725.7967213114755 L446,729.6655737704918 A147.51671271717618 147.51671271717618 0.7413350128684683 0 1 346.3859209661748,690.952426202279 L97.75527254052497,463.3209783853333 A143.28315717686976 143.28315717686976 0.7413350128684683 0 0 1,425.71885245901626 Z" style="fill: rgb(228, 89, 3);"/><title>Solar, hydro &amp;
 wind power → Human toxicity
Solar, hydro &amp;
 wind power
4.00</title><text class="label" dy="0.35em" x="5" y="423.7844262295081"/></g><g class="link" style="opacity: 0.8;"><path d="M1,429.5877049180327 A139.41430471785335 139.41430471785335 1.0206268630153454 0 1 119.84176295268286,496.11179260876503 L313.08385715786426,811.1778205157376 A155.92508205632356 155.92508205632356 1.0206268630153454 0 0 446,885.5803278688526 L446,889.4491803278689 A159.79393451533997 159.79393451533997 1.0206268630153454 0 1 309.78590830129724,813.2005791986024 L116.54381409611584,498.13455129163 A135.54545225883695 135.54545225883695 1.0206268630153454 0 0 1,433.4565573770491 Z" style="fill: rgb(228, 89, 3);"/><title>Solar, hydro &amp;
 wind power → Mineral &amp; metal 
depletion
Solar, hydro &amp;
 wind power
4.00</title><text class="label" dy="0.35em" x="5" y="431.5221311475409"/></g><g class="link" style="opacity: 0.8;"><path d="M1,586.4454918032786 A145.41596436067783 145.41596436067783 0.7508222650811661 0 1 100.20861249741432,625.5437535115581 L336.9821586751696,846.4850869523973 A159.79393451533997 159.79393451533997 0.7508222650811661 0 0 446,889.4491803278689 L446,893.3180327868853 A163.66278697435638 163.66278697435638 0.7508222650811661 0 1 334.3426721091402,849.3137138308291 L97.56912593138489,628.3723803899899 A141.54711190166142 141.54711190166142 0.7508222650811661 0 0 1,590.314344262295 Z" style="fill: rgb(0, 140, 249);"/><title>CDR → Mineral &amp; metal 
depletion
CDR
4.00</title><text class="label" dy="0.35em" x="5" y="588.3799180327868"/></g><g class="link" style="opacity: 0.8;"><path d="M1,638.8442622950819 A137.87543397186224 137.87543397186224 0.8079737223054726 0 0 100.66857573525164,596.2358756367358 L334.2459824045353,351.8667248846667 A154.5936977669095 154.5936977669095 0.8079737223054726 0 1 446,304.0918032786885 L446,307.9606557377048 A150.72484530789308 150.72484530789308 0.8079737223054726 0 0 337.04273163833057,354.5399650670863 L103.46532496904686,598.9091158191555 A141.74428643087865 141.74428643087865 0.8079737223054726 0 1 1,642.7131147540982 Z" style="fill: rgb(235, 172, 35);"/><title>CCS &amp; CCU → Land use &amp; 
degradation 
CCS &amp; CCU
4.00</title><text class="label" dy="0.35em" x="5" y="640.77868852459"/></g><g class="link" style="opacity: 0.8;"><path d="M1,727.0299180327869 A138.51343094675033 138.51343094675033 0.7754951121095264 0 0 97.96905716730485,687.4253972242245 L344.4639791817165,445.76486177932617 A145.03701509601896 145.03701509601896 0.7754951121095264 0 1 446,404.29508196721315 L446,408.1639344262295 A141.16816263700255 141.16816263700255 0.7754951121095264 0 0 347.17244559328384,448.527510697855 L100.67752357887223,690.1880461427534 A142.38228340576674 142.38228340576674 0.7754951121095264 0 1 1,730.8987704918032 Z" style="fill: rgb(209, 99, 230);"/><title>Electric vehicles → Eutrophication &amp; 
biogeochemical flows
Electric vehicles
4.00</title><text class="label" dy="0.35em" x="5" y="728.9643442622951"/></g><g class="link" style="opacity: 0.8;"><path d="M1,938.3901639344261 A173.3832726399864 173.3832726399864 0.6754705947561499 0 0 109.41043026303562,900.3174150593537 L349.7539510908831,707.7548280639136 A153.92850021941803 153.92850021941803 0.6754705947561499 0 1 446,673.9540983606557 L446,677.8229508196721 A150.05964776040162 150.05964776040162 0.6754705947561499 0 0 352.1730077468102,710.7741300105648 L111.82948691896264,903.336717006005 A177.2521250990028 177.2521250990028 0.6754705947561499 0 1 1,942.2590163934425 Z" style="fill: rgb(0, 187, 173);"/><title>Other → Acidification
Other
4.00</title><text class="label" dy="0.35em" x="5" y="940.3245901639343"/></g><g class="link" style="opacity: 0.8;"><path d="M1,674.6311475409834 A229.53024026090463 229.53024026090463 0.3854717588337302 0 1 87.30252573279235,691.4738111868696 L361.5158171276141,802.7417094511457 A224.69417468713414 224.69417468713414 0.3854717588337302 0 0 446,819.2295081967213 L446,824.0655737704917 A229.53024026090463 229.53024026090463 0.3854717588337302 0 1 359.69747426720767,807.2229101246055 L85.48418287238586,695.9550118603295 A224.69417468713414 224.69417468713414 0.3854717588337302 0 0 1,679.4672131147538 Z" style="fill: rgb(235, 172, 35);"/><title>CCS &amp; CCU → Ecotoxicity
CCS &amp; CCU
5.00</title><text class="label" dy="0.35em" x="5" y="677.0491803278686"/></g><g class="link" style="opacity: 0.8;"><path d="M1,679.4672131147539 A173.39505320338105 173.39505320338105 0.5504709256544529 0 1 91.70098371177932,705.0814284902253 L357.8287072841983,868.4182093325671 A168.55898762961056 168.55898762961056 0.5504709256544529 0 0 446,893.3180327868853 L446,898.1540983606557 A173.39505320338105 173.39505320338105 0.5504709256544529 0 1 355.2990162882207,872.5398829851842 L89.17129271580168,709.2031021428425 A168.55898762961056 168.55898762961056 0.5504709256544529 0 0 1,684.3032786885243 Z" style="fill: rgb(235, 172, 35);"/><title>CCS &amp; CCU → Mineral &amp; metal 
depletion
CCS &amp; CCU
5.00</title><text class="label" dy="0.35em" x="5" y="681.8852459016391"/></g><g class="link" style="opacity: 0.8;"><path d="M1,808.4450819672131 A173.9334517036902 173.9334517036902 0.5274677458877086 0 0 88.54885954169637,784.8048197782452 L356.0169219597612,628.9991980854871 A178.7695172774607 178.7695172774607 0.5274677458877086 0 1 446,604.7016393442624 L446,609.5377049180328 A173.9334517036902 173.9334517036902 0.5274677458877086 0 0 358.45114045830366,633.1779671070007 L90.98307804023884,788.9835887997588 A178.7695172774607 178.7695172774607 0.5274677458877086 0 1 1,813.2811475409835 Z" style="fill: rgb(103, 78, 167);"/><title>Carbon pricing → Air pollution
Carbon pricing
5.00</title><text class="label" dy="0.35em" x="5" y="810.8631147540983"/></g><g class="link" style="opacity: 0.8;"><path d="M1,858.9094262295082 A147.21355507210265 147.21355507210265 1.12893870065465 0 0 134.07499835342603,774.647246124142 L313.2482231885287,395.8870266292029 A146.85599284887667 146.85599284887667 1.12893870065465 0 1 446,311.8295081967213 L446,316.6655737704918 A142.01992727510617 142.01992727510617 1.12893870065465 0 0 317.6198275421588,397.95502218266296 L138.44660270705614,776.715241677602 A152.04962064587315 152.04962064587315 1.12893870065465 0 1 1,863.7454918032786 Z" style="fill: rgb(135, 133, 0);"/><title>General mitigation → Land use &amp; 
degradation 
General mitigation
5.00</title><text class="label" dy="0.35em" x="5" y="861.3274590163934"/></g><g class="link" style="opacity: 0.8;"><path d="M1,948.0622950819671 A268.55415889727385 268.55415889727385 0.3158774002313094 0 0 84.42650544579703,934.7753578370719 L361.0711679747784,844.3622711288448 A273.39022447104435 273.39022447104435 0.3158774002313094 0 1 446,830.8360655737706 L446,835.672131147541 A268.55415889727385 268.55415889727385 0.3158774002313094 0 0 362.57349455420297,848.9590683924363 L85.92883202522165,939.3721551006633 A273.39022447104435 273.39022447104435 0.3158774002313094 0 1 1,952.8983606557375 Z" style="fill: rgb(0, 187, 173);"/><title>Other → Ecotoxicity
Other
5.00</title><text class="label" dy="0.35em" x="5" y="950.4803278688523"/></g><g class="link" style="opacity: 0.8;"><path d="M1,918.0786885245901 A153.0717972301503 153.0717972301503 1.1807234820816377 0 0 142.57325241121654,823.2133283008244 L314.64841613304753,404.6816015672324 A142.01992727510617 142.01992727510617 1.1807234820816377 0 1 446,316.6655737704918 L446,321.5016393442623 A137.18386170133567 137.18386170133567 1.1807234820816377 0 0 319.1212030509616,406.52054349691514 L147.0460393291306,825.0522702305071 A157.9078628039208 157.9078628039208 1.1807234820816377 0 1 1,922.9147540983605 Z" style="fill: rgb(0, 187, 173);"/><title>Other → Land use &amp; 
degradation 
Other
5.00</title><text class="label" dy="0.35em" x="5" y="920.4967213114753"/></g><g class="link" style="opacity: 0.8;"><path d="M1,229.0360655737705 A151.08901648255312 151.08901648255312 1.041657449600105 0 1 131.42639637764543,303.8568315872947 L332.85133052884765,648.3137732423817 A131.0740897663565 131.0740897663565 1.041657449600105 0 0 446,713.2229508196722 L446,719.0262295081968 A136.8773684548811 136.8773684548811 1.041657449600105 0 1 327.8416961812255,651.2432112840216 L126.41676203002325,306.7862696289348 A145.28573779402853 145.28573779402853 1.041657449600105 0 0 1,234.83934426229507 Z" style="fill: rgb(0, 167, 108);"/><title>Bioenergy → Human toxicity
Bioenergy
6.00</title><text class="label" dy="0.35em" x="5" y="231.93770491803278"/></g><g class="link" style="opacity: 0.8;"><path d="M1,746.3741803278688 A396.88534250520576 396.88534250520576 0.21185334154576863 0 1 84.45394066944253,755.2473904425839 L363.7663273109856,815.3221082082778 A391.0820638166811 391.0820638166811 0.21185334154576863 0 0 446,824.0655737704918 L446,829.8688524590165 A396.88534250520576 396.88534250520576 0.21185334154576863 0 1 362.54605933055745,820.9956423443014 L83.23367268901437,760.9209245786075 A391.0820638166811 391.0820638166811 0.21185334154576863 0 0 1,752.1774590163934 Z" style="fill: rgb(209, 99, 230);"/><title>Electric vehicles → Ecotoxicity
Electric vehicles
6.00</title><text class="label" dy="0.35em" x="5" y="749.2758196721311"/></g><g class="link" style="opacity: 0.8;"><path d="M1,752.1774590163934 A228.28103588967176 228.28103588967176 0.3889159579853285 0 1 87.56087052511978,769.2253369009948 L361.63964890576864,881.5396055184287 A222.47775720114717 222.47775720114717 0.3889159579853285 0 0 446,898.1540983606558 L446,903.9573770491804 A228.28103588967176 228.28103588967176 0.3889159579853285 0 1 359.4391294748802,886.9094991645791 L85.36035109423133,774.5952305471451 A222.47775720114717 222.47775720114717 0.3889159579853285 0 0 1,757.980737704918 Z" style="fill: rgb(209, 99, 230);"/><title>Electric vehicles → Mineral &amp; metal 
depletion
Electric vehicles
6.00</title><text class="label" dy="0.35em" x="5" y="755.0790983606557"/></g><g class="link" style="opacity: 0.8;"><path d="M1,853.1061475409836 A141.41027638357806 141.41027638357806 1.2347972960552673 0 0 134.50280999013842,758.3206069916913 L296.00899782554404,295.8723052263782 A158.8750759186749 158.8750759186749 1.2347972960552673 0 1 446,189.38032786885248 L446,195.18360655737706 A153.0717972301503 153.0717972301503 1.2347972960552673 0 0 301.4877652241197,297.78571875434034 L139.98157738871407,760.2340205196534 A147.21355507210265 147.21355507210265 1.2347972960552673 0 1 1,858.9094262295082 Z" style="fill: rgb(135, 133, 0);"/><title>General mitigation → Freshwater use
General mitigation
6.00</title><text class="label" dy="0.35em" x="5" y="856.0077868852459"/></g><g class="link" style="opacity: 0.8;"><path d="M1,942.2590163934425 A185.73732064811855 185.73732064811855 0.48272744053539585 0 0 87.2186477600859,921.0352120896177 L357.08748953448924,779.6016865811426 A191.54059933664314 191.54059933664314 0.48272744053539585 0 1 446,757.7147540983606 L446,763.5180327868852 A185.73732064811855 185.73732064811855 0.48272744053539585 0 0 359.7813522399141,784.74183709071 L89.91251046551082,926.1753625991851 A191.54059933664314 191.54059933664314 0.48272744053539585 0 1 1,948.0622950819671 Z" style="fill: rgb(0, 187, 173);"/><title>Other → Human toxicity
Other
6.00</title><text class="label" dy="0.35em" x="5" y="945.1606557377048"/></g><g class="link" style="opacity: 0.8;"><path d="M1,301.7463114754098 A169.24658126734874 169.24658126734874 0.9755086782399309 0 1 141.1340088647658,376.08838900255125 L332.667286152488,658.9024275313058 A136.8773684548811 136.8773684548811 0.9755086782399309 0 0 446,719.0262295081968 L446,725.7967213114755 A143.64786025815977 143.64786025815977 0.9755086782399309 0 1 327.0614053643806,662.6989601398569 L135.52812807665845,379.8849216111025 A162.47608946407007 162.47608946407007 0.9755086782399309 0 0 1,308.5168032786885 Z" style="fill: rgb(184, 0, 88);"/><title>Low-carbon
 electricity systems → Human toxicity
Low-carbon
 electricity systems
7.00</title><text class="label" dy="0.35em" x="5" y="305.13155737704915"/></g><g class="link" style="opacity: 0.8;"><path d="M1,374.4565573770492 A160.8420751861002 160.8420751861002 0.6029302962875125 0 0 92.20686969329199,346.09648123580774 L331.22754416713923,181.54335199628528 A202.39966608260931 202.39966608260931 0.6029302962875125 0 1 446,145.85573770491803 L446,152.6262295081967 A195.62917427933064 195.62917427933064 0.6029302962875125 0 0 335.06680925338395,187.12005378639438 L96.04613477953669,351.6731830259169 A167.61256698937888 167.61256698937888 0.6029302962875125 0 1 1,381.22704918032787 Z" style="fill: rgb(228, 89, 3);"/><title>Solar, hydro &amp;
 wind power → Freshwater use
Solar, hydro &amp;
 wind power
7.00</title><text class="label" dy="0.35em" x="5" y="377.84180327868853"/></g><g class="link" style="opacity: 0.8;"><path d="M1,381.22704918032787 A302.3652740664763 302.3652740664763 0.27699789557348087 0 0 83.68759528143475,369.7011131475312 L361.46088361444964,290.72828436529176 A309.13576586975495 309.13576586975495 0.27699789557348087 0 1 446,278.94426229508196 L446,285.71475409836063 A302.3652740664763 302.3652740664763 0.27699789557348087 0 0 363.31240471856523,297.2406901311573 L85.53911638555034,376.21351891339674 A309.13576586975495 309.13576586975495 0.27699789557348087 0 1 1,387.99754098360654 Z" style="fill: rgb(228, 89, 3);"/><title>Solar, hydro &amp;
 wind power → Land use &amp; 
degradation 
Solar, hydro &amp;
 wind power
7.00</title><text class="label" dy="0.35em" x="5" y="384.6122950819672"/></g><g class="link" style="opacity: 0.8;"><path d="M1,561.2979508196721 A323.6170644913009 323.6170644913009 0.26359456425403893 0 1 85.31927869942238,572.4757993511707 L363.4447907763025,647.5346951885206 A316.8465726880222 316.8465726880222 0.26359456425403893 0 0 446,658.4786885245902 L446,665.2491803278689 A323.6170644913009 323.6170644913009 0.26359456425403893 0 1 361.6807213005776,654.0713317963703 L83.55520922369745,579.0124359590204 A316.8465726880222 316.8465726880222 0.26359456425403893 0 0 1,568.0684426229508 Z" style="fill: rgb(0, 140, 249);"/><title>CDR → Acidification
CDR
7.00</title><text class="label" dy="0.35em" x="5" y="564.6831967213114"/></g><g class="link" style="opacity: 0.8;"><path d="M1,659.1557377049179 A1003.3852459016393 1003.3852459016393 0.014141630237670233 0 1 15.189030188570808,659.2560673861442 L431.90671241177193,665.1495276361509 A996.6147540983607 996.6147540983607 0.014141630237670233 0 0 446,665.2491803278689 L446,672.0196721311476 A1003.3852459016393 1003.3852459016393 0.014141630237670233 0 1 431.8109698114292,671.9193424499213 L15.093287588228037,666.0258821999146 A996.6147540983607 996.6147540983607 0.014141630237670233 0 0 1,665.9262295081966 Z" style="fill: rgb(235, 172, 35);"/><title>CCS &amp; CCU → Acidification
CCS &amp; CCU
7.00</title><text class="label" dy="0.35em" x="5" y="662.5409836065572"/></g><g class="link" style="opacity: 0.8;"><path d="M1,642.7131147540982 A154.53960785458165 154.53960785458165 0.6193134048322559 0 0 90.7065671932085,614.0115861849946 L352.36332332668076,427.48355342318916 A161.31009965786032 161.31009965786032 0.6193134048322559 0 1 446,397.5245901639345 L446,404.29508196721315 A154.53960785458165 154.53960785458165 0.6193134048322559 0 0 356.29343280679154,432.9966105363168 L94.63667667331923,619.5246432981222 A161.31009965786032 161.31009965786032 0.6193134048322559 0 1 1,649.4836065573769 Z" style="fill: rgb(235, 172, 35);"/><title>CCS &amp; CCU → Eutrophication &amp; 
biogeochemical flows
CCS &amp; CCU
7.00</title><text class="label" dy="0.35em" x="5" y="646.0983606557376"/></g><g class="link" style="opacity: 0.8;"><path d="M1,278.53319672131147 A228.73574539383748 228.73574539383748 0.37498169589666963 0 0 84.77572409190702,262.63933929539985 L359.3902989483415,154.54954985387843 A236.47345031187024 236.47345031187024 0.37498169589666963 0 1 446,138.11803278688524 L446,145.855737704918 A228.73574539383748 228.73574539383748 0.37498169589666963 0 0 362.224275908093,161.74959513082962 L87.60970105165848,269.83938457235104 A236.47345031187024 236.47345031187024 0.37498169589666963 0 1 1,286.2709016393443 Z" style="fill: rgb(184, 0, 88);"/><title>Low-carbon
 electricity systems → Freshwater use
Low-carbon
 electricity systems
8.00</title><text class="label" dy="0.35em" x="5" y="282.4020491803279"/></g><g class="link" style="opacity: 0.8;"><path d="M1,651.4180327868851 A522.6207945316476 522.6207945316476 0.15708026305489398 0 0 82.75622980269422,644.983652029699 L363.0333216502076,600.5919405897148 A530.3584994496803 530.3584994496803 0.15708026305489398 0 1 446,594.0622950819672 L446,601.8 A522.6207945316476 522.6207945316476 0.15708026305489398 0 0 364.24377019730576,608.234380757186 L83.96667834979239,652.6260921971702 A530.3584994496803 530.3584994496803 0.15708026305489398 0 1 1,659.1557377049178 Z" style="fill: rgb(235, 172, 35);"/><title>CCS &amp; CCU → Air pollution
CCS &amp; CCU
8.00</title><text class="label" dy="0.35em" x="5" y="655.2868852459014"/></g><g class="link" style="opacity: 0.8;"><path d="M1,325.9266393442623 A145.0662533984963 145.0662533984963 1.1756725161047243 0 1 134.8887410207962,415.1536332299131 L320.14545362333973,859.3534351685489 A136.36133536570938 136.36133536570938 1.1756725161047243 0 0 446,943.2262295081969 L446,951.9311475409838 A145.0662533984963 145.0662533984963 1.1756725161047243 0 1 312.1112589792038,862.7041536553329 L126.85454637666028,418.5043517166971 A136.36133536570938 136.36133536570938 1.1756725161047243 0 0 1,334.63155737704915 Z" style="fill: rgb(184, 0, 88);"/><title>Low-carbon
 electricity systems → Environmental effects 
of mining
Low-carbon
 electricity systems
9.00</title><text class="label" dy="0.35em" x="5" y="330.2790983606557"/></g><g class="link" style="opacity: 0.8;"><path d="M1,568.0684426229508 A212.40562605294778 212.40562605294778 0.4275199084837702 0 1 89.06660207032874,587.1856221025686 L361.542589299476,711.3318645005882 A203.70070802016087 203.70070802016087 0.4275199084837702 0 0 446,729.6655737704918 L446,738.3704918032788 A212.40562605294778 212.40562605294778 0.4275199084837702 0 1 357.93339792967123,719.253312323661 L85.45741070052401,595.1070699256414 A203.70070802016087 203.70070802016087 0.4275199084837702 0 0 1,576.7733606557377 Z" style="fill: rgb(0, 140, 249);"/><title>CDR → Human toxicity
CDR
9.00</title><text class="label" dy="0.35em" x="5" y="572.4209016393443"/></g><g class="link" style="opacity: 0.8;"><path d="M1,630.139344262295 A129.17051593907533 129.17051593907533 1.0237418720694609 0 0 111.31942514372194,568.1599484502548 L299.5723261608765,259.07220318591743 A171.44884641047815 171.44884641047815 1.0237418720694609 0 1 446,176.8065573770492 L446,185.5114754098361 A162.74392837769125 162.74392837769125 1.0237418720694609 0 0 307.00685211533823,263.6002736127078 L118.75395109818366,572.688018877045 A137.87543397186224 137.87543397186224 1.0237418720694609 0 1 1,638.844262295082 Z" style="fill: rgb(235, 172, 35);"/><title>CCS &amp; CCU → Freshwater use
CCS &amp; CCU
9.00</title><text class="label" dy="0.35em" x="5" y="634.4918032786885"/></g><g class="link" style="opacity: 0.8;"><path d="M1,665.9262295081966 A425.24121824931996 425.24121824931996 0.19778991221878295 0 1 84.56109609605934,674.2170467295396 L364.1494447946865,730.2493921004627 A416.5363002165331 416.5363002165331 0.19778991221878295 0 0 446,738.3704918032787 L446,747.0754098360657 A425.24121824931996 425.24121824931996 0.19778991221878295 0 1 362.4389039039406,738.7845926147227 L82.85055520531353,682.7522472437995 A416.5363002165331 416.5363002165331 0.19778991221878295 0 0 1,674.6311475409835 Z" style="fill: rgb(235, 172, 35);"/><title>CCS &amp; CCU → Human toxicity
CCS &amp; CCU
9.00</title><text class="label" dy="0.35em" x="5" y="670.27868852459"/></g><g class="link" style="opacity: 0.8;"><path d="M1,909.3737704918033 A144.3668791973634 144.3668791973634 1.2622686228913922 0 0 138.55011686034433,808.8447876957471 L300.1559967626242,301.7742051480282 A153.0717972301503 153.0717972301503 1.2622686228913922 0 1 446,195.18360655737706 L446,203.88852459016397 A144.3668791973634 144.3668791973634 1.2622686228913922 0 0 308.44988313965564,304.41750738622017 L146.84400323737574,811.4880899339391 A153.0717972301503 153.0717972301503 1.2622686228913922 0 1 1,918.0786885245902 Z" style="fill: rgb(0, 187, 173);"/><title>Other → Freshwater use
Other
9.00</title><text class="label" dy="0.35em" x="5" y="913.7262295081968"/></g><g class="link" style="opacity: 0.8;"><path d="M1,219.3639344262295 A160.76114763009411 160.76114763009411 0.9727272192368839 0 1 133.85692525530226,289.60887356827465 L339.58999246627474,591.5775838087294 A128.759527571303 128.759527571303 0.9727272192368839 0 0 446,647.8393442622951 L446,657.5114754098361 A138.431658718844 138.431658718844 0.9727272192368839 0 1 331.59670787063914,597.0234558516999 L125.86364065966666,295.0547456112451 A151.08901648255312 151.08901648255312 0.9727272192368839 0 0 1,229.0360655737705 Z" style="fill: rgb(0, 167, 108);"/><title>Bioenergy → Acidification
Bioenergy
10.0</title><text class="label" dy="0.35em" x="5" y="224.2"/></g><g class="link" style="opacity: 0.8;"><path d="M1,576.7733606557376 A167.35585679215538 167.35585679215538 0.5925155390287494 0 1 94.45979858250242,605.3010904290699 L357.9415984539657,782.6783732242442 A157.68372564461438 157.68372564461438 0.5925155390287494 0 0 446,809.5573770491803 L446,819.2295081967213 A167.35585679215538 167.35585679215538 0.5925155390287494 0 1 352.5402014174976,790.7017784233891 L89.05840154603432,613.3244956282148 A157.68372564461438 157.68372564461438 0.5925155390287494 0 0 1,586.4454918032786 Z" style="fill: rgb(0, 140, 249);"/><title>CDR → Ecotoxicity
CDR
10.0</title><text class="label" dy="0.35em" x="5" y="581.6094262295081"/></g><g class="link" style="opacity: 0.8;"><path d="M1,286.27090163934423 A994.6803278688525 994.6803278688525 0.044871207731856266 0 0 45.61753175642982,285.26971238076356 L400.90522820253346,269.31681625674594 A1005.3196721311475 1005.3196721311475 0.044871207731856266 0 1 446,268.3049180327869 L446,278.9442622950819 A994.6803278688525 994.6803278688525 0.044871207731856266 0 0 401.38246824357014,279.94545155366256 L46.09477179746653,295.8983476776802 A1005.3196721311475 1005.3196721311475 0.044871207731856266 0 1 1,296.91024590163926 Z" style="fill: rgb(184, 0, 88);"/><title>Low-carbon
 electricity systems → Land use &amp; 
degradation 
Low-carbon
 electricity systems
11.0</title><text class="label" dy="0.35em" x="5" y="291.59057377049174"/></g><g class="link" style="opacity: 0.8;"><path d="M1,735.7348360655737 A1005.3196721311475 1005.3196721311475 0.027132617623420563 0 1 28.273607589885817,736.1048609492033 L419.015030251855,746.7093009427739 A994.6803278688525 994.6803278688525 0.027132617623420563 0 0 446,747.0754098360655 L446,757.7147540983606 A1005.3196721311475 1005.3196721311475 0.027132617623420563 0 1 418.72639241011416,757.344729214731 L27.98496974814498,746.7402892211604 A994.6803278688525 994.6803278688525 0.027132617623420563 0 0 1,746.3741803278688 Z" style="fill: rgb(209, 99, 230);"/><title>Electric vehicles → Human toxicity
Electric vehicles
11.0</title><text class="label" dy="0.35em" x="5" y="741.0545081967213"/></g><g class="link" style="opacity: 0.8;"><path d="M1,922.9147540983606 A157.9078628039208 157.9078628039208 1.0983535348430202 0 0 141.61052848657275,836.8648930341806 L321.15675751294395,485.53185370744086 A140.20094952224846 140.20094952224846 1.0983535348430202 0 1 446,409.13114754098365 L446,419.7704918032787 A129.56160525995338 129.56160525995338 1.0983535348430202 0 0 330.63066079367877,490.3734240063121 L151.08443176730762,841.7064633330519 A168.5472070662159 168.5472070662159 1.0983535348430202 0 1 1,933.5540983606556 Z" style="fill: rgb(0, 187, 173);"/><title>Other → Eutrophication &amp; 
biogeochemical flows
Other
11.0</title><text class="label" dy="0.35em" x="5" y="928.2344262295081"/></g><g class="link" style="opacity: 0.8;"><path d="M1,549.6913934426229 A917.3055843400006 917.3055843400006 0.0900494959070115 0 1 83.49131410506348,553.4080559153706 L364.5524385839136,578.7861017160136 A905.6990269629513 905.6990269629513 0.0900494959070115 0 0 446,582.4557377049181 L446,594.0622950819674 A917.3055843400006 917.3055843400006 0.0900494959070115 0 1 363.50868589493655,590.3456326092197 L82.44756141608636,564.9675868085767 A905.6990269629513 905.6990269629513 0.0900494959070115 0 0 1,561.2979508196722 Z" style="fill: rgb(0, 140, 249);"/><title>CDR → Air pollution
CDR
12.0</title><text class="label" dy="0.35em" x="5" y="555.4946721311476"/></g><g class="link" style="opacity: 0.8;"><path d="M1,206.7901639344262 A173.33491812189737 173.33491812189737 0.8680227709827719 0 1 133.26363811207332,268.0923909626817 L346.58536081355487,519.9359096482209 A130.2854555452264 130.2854555452264 0.8680227709827719 0 0 446,566.0131147540984 L446,578.5868852459017 A142.85922603702966 142.85922603702966 0.8680227709827719 0 1 336.99091413165434,528.0627969520236 L123.6691914301728,276.21927826648454 A160.76114763009411 160.76114763009411 0.8680227709827719 0 0 1,219.36393442622946 Z" style="fill: rgb(0, 167, 108);"/><title>Bioenergy → Air pollution
Bioenergy
13.0</title><text class="label" dy="0.35em" x="5" y="213.07704918032783"/></g><g class="link" style="opacity: 0.8;"><path d="M1,312.3856557377049 A158.60723700505366 158.60723700505366 1.151129277639942 0 1 145.8440391178196,406.36735628531153 L315.97133097428406,787.6705603661322 A142.3840984497662 142.3840984497662 1.151129277639942 0 0 446,872.0393442622952 L446,885.5803278688526 A155.92508205632356 155.92508205632356 1.151129277639942 0 1 303.60537090690417,793.1879210254532 L133.4780790504397,411.8847169446324 A145.06625339849631 145.06625339849631 1.151129277639942 0 0 1,325.92663934426224 Z" style="fill: rgb(184, 0, 88);"/><title>Low-carbon
 electricity systems → Mineral &amp; metal 
depletion
Low-carbon
 electricity systems
14.0</title><text class="label" dy="0.35em" x="5" y="319.15614754098357"/></g><g class="link" style="opacity: 0.8;"><path d="M1,516.8061475409836 A236.7877466510966 236.7877466510966 0.3558039914896174 0 0 83.48361748415603,501.97535575012864 L358.79946059754786,399.6625144832622 A250.32873025765394 250.32873025765394 0.3558039914896174 0 1 446,383.9836065573771 L446,397.5245901639344 A236.7877466510966 236.7877466510966 0.3558039914896174 0 0 363.51638251584393,412.3553819547894 L88.20053940245215,514.6682232216558 A250.32873025765394 250.32873025765394 0.3558039914896174 0 1 1,530.347131147541 Z" style="fill: rgb(0, 140, 249);"/><title>CDR → Eutrophication &amp; 
biogeochemical flows
CDR
14.0</title><text class="label" dy="0.35em" x="5" y="523.5766393442623"/></g><g class="link" style="opacity: 0.8;"><path d="M1,192.28196721311474 A187.84311484320887 187.84311484320887 0.6756156792769102 0 1 118.47292580591696,233.54695443628447 L355.21446621093486,423.28004669728205 A145.16908753780635 145.16908753780635 0.6756156792769102 0 0 446,455.1704918032787 L446,469.6786885245902 A159.67728425911784 159.67728425911784 0.6756156792769102 0 1 346.1413611442793,434.6011127492801 L109.39982073926146,244.86802048828253 A173.33491812189737 173.33491812189737 0.6756156792769102 0 0 1,206.79016393442623 Z" style="fill: rgb(0, 167, 108);"/><title>Bioenergy → Biodiversity &amp; 
ecosystem functioning
Bioenergy
15.0</title><text class="label" dy="0.35em" x="5" y="199.5360655737705"/></g><g class="link" style="opacity: 0.8;"><path d="M1,498.42909836065576 A162.36012655883593 162.36012655883593 0.5479036677362439 0 0 85.57321247719302,474.6625590542204 L351.8542026894952,312.17135574299135 A180.73717573916377 180.73717573916377 0.5479036677362439 0 1 446,285.71475409836063 L446,304.0918032786885 A162.36012655883593 162.36012655883593 0.5479036677362439 0 0 361.426787522807,327.8583425851238 L95.14579731050482,490.3495458963529 A180.73717573916377 180.73717573916377 0.5479036677362439 0 1 1,516.8061475409836 Z" style="fill: rgb(0, 140, 249);"/><title>CDR → Land use &amp; 
degradation 
CDR
19.0</title><text class="label" dy="0.35em" x="5" y="507.6176229508197"/></g><g class="link" style="opacity: 0.8;"><path d="M1,530.347131147541 A990.327868852459 990.327868852459 0.0782384231601585 0 0 78.40266758272855,527.3176543108549 L367.08541141499336,504.6853734944169 A1009.672131147541 1009.672131147541 0.0782384231601585 0 1 446,501.59672131147545 L446,520.9409836065574 A990.327868852459 990.327868852459 0.0782384231601585 0 0 368.59733241727145,523.9704604432435 L79.91458858500664,546.6027412596815 A1009.672131147541 1009.672131147541 0.0782384231601585 0 1 1,549.6913934426229 Z" style="fill: rgb(0, 140, 249);"/><title>CDR → Biodiversity &amp; 
ecosystem functioning
CDR
20.0</title><text class="label" dy="0.35em" x="5" y="540.019262295082"/></g><g class="link" style="opacity: 0.8;"><path d="M1,474.24877049180327 A128.50915069078115 128.50915069078115 0.8103144846605452 0 0 94.10539052902838,434.3172019858109 L304.2658855634702,213.41396121846637 A195.62917427933064 195.62917427933064 0.8103144846605452 0 1 446,152.62622950819673 L446,176.80655737704922 A171.44884641047815 171.44884641047815 0.8103144846605452 0 0 321.7846292268423,230.08075084041403 L111.62413419240052,450.9839916077585 A152.68947855963359 152.68947855963359 0.8103144846605452 0 1 1,498.42909836065576 Z" style="fill: rgb(0, 140, 249);"/><title>CDR → Freshwater use
CDR
25.0</title><text class="label" dy="0.35em" x="5" y="486.3389344262295"/></g><g class="link" style="opacity: 0.8;"><path d="M1,167.1344262295082 A212.99065582681544 212.99065582681544 0.5012575551354095 0 1 103.34813737144839,193.33675735123913 L363.14789583017864,335.6905228223175 A172.41861412403884 172.41861412403884 0.5012575551354095 0 0 446,356.9016393442623 L446,382.04918032786884 A197.56615510764541 197.56615510764541 0.5012575551354095 0 1 351.06377895118715,357.74438726320506 L91.26402049245686,215.39062179212667 A187.84311484320887 187.84311484320887 0.5012575551354095 0 0 1,192.28196721311477 Z" style="fill: rgb(0, 167, 108);"/><title>Bioenergy → Eutrophication &amp; 
biogeochemical flows
Bioenergy
26.0</title><text class="label" dy="0.35em" x="5" y="179.70819672131148"/></g><g class="link" style="opacity: 0.8;"><path d="M1,138.11803278688524 A323.2846957275682 323.2846957275682 0.27408121075807745 0 1 88.50106223795184,150.1848649543801 L366.352588992985,228.3047500322789 A294.2683022849452 294.2683022849452 0.27408121075807745 0 0 446,239.28852459016395 L446,268.3049180327869 A323.2846957275682 323.2846957275682 0.27408121075807745 0 1 358.4989377620481,256.238085865292 L80.64741100701504,178.11820078739322 A294.2683022849452 294.2683022849452 0.27408121075807745 0 0 1,167.13442622950816 Z" style="fill: rgb(0, 167, 108);"/><title>Bioenergy → Land use &amp; 
degradation 
Bioenergy
30.0</title><text class="label" dy="0.35em" x="5" y="152.6262295081967"/></g><g class="link" style="opacity: 0.8;"><path d="M1,389.9319672131147 A386.304593940339 386.304593940339 0.22508985372386392 0 1 87.22084826776418,399.67686519091797 L366.25543520268434,463.56739580141544 A357.288200497716 357.288200497716 0.22508985372386392 0 0 446,472.5803278688525 L446,501.5967213114755 A386.304593940339 386.304593940339 0.22508985372386392 0 1 359.77915173223585,491.85182333367226 L80.74456479731566,427.9612927231748 A357.288200497716 357.288200497716 0.22508985372386392 0 0 1,418.9483606557377 Z" style="fill: rgb(228, 89, 3);"/><title>Solar, hydro &amp;
 wind power → Biodiversity &amp; 
ecosystem functioning
Solar, hydro &amp;
 wind power
30.0</title><text class="label" dy="0.35em" x="5" y="404.4401639344262"/></g><g class="link" style="opacity: 0.8;"><path d="M1,106.2 A0 0 0 0 0 1,106.2 L446,106.2 A0 0 0 0 0 446,106.2 L446,138.11803278688524 A0 0 0 0 0 446,138.11803278688524 L1,138.11803278688524 A0 0 0 0 0 1,138.11803278688524 Z" style="fill: rgb(0, 167, 108);"/><title>Bioenergy → Freshwater use
Bioenergy
33.0</title><text class="label" dy="0.35em" x="5" y="122.15901639344263"/></g></g><g class="nodes"><g class="node" transform="translate(0,106.2)"><title>Bioenergy</title><line x1="0" x2="0" y1="0" y2="132.5081967213115" style="display: inline; stroke: rgb(0, 0, 0);"/><rect class="node-body" width="1" height="132.5081967213115" style="fill: none;"/><text class="node-value" dy=".35em" text-anchor="middle" transform="translate(0.5,66.25409836065575) rotate(-90)" style="display: none;"/><text class="node-title" dy=".35em" text-anchor="end" transform="translate(-4,66.25409836065575)" style="display: inline;">Bioenergy</text><rect class="node-click-target" x="-5" y="-5" width="10" height="137.5081967213115" style="fill: none; visibility: hidden; pointer-events: all;"/></g><g class="node" transform="translate(0,278.53319672131147)"><title>Low-carbon
 electricity systems</title><line x1="0" x2="0" y1="0" y2="56.09836065573768" style="display: inline; stroke: rgb(0, 0, 0);"/><rect class="node-body" width="1" height="56.09836065573768" style="fill: none;"/><text class="node-value" dy=".35em" text-anchor="middle" transform="translate(0.5,28.04918032786884) rotate(-90)" style="display: none;"/><text class="node-title" dy=".35em" text-anchor="end" transform="translate(-4,28.04918032786884)" style="display: inline;"><tspan x="0" dy="-0.33000000000000007em">Low-carbon</tspan><tspan x="0" dy="1.1em"> electricity systems</tspan></text><rect class="node-click-target" x="-5" y="-5" width="10" height="61.09836065573768" style="fill: none; visibility: hidden; pointer-events: all;"/></g><g class="node" transform="translate(0,374.4565573770492)"><title>Solar, hydro &amp;
 wind power</title><line x1="0" x2="0" y1="0" y2="59.96721311475409" style="display: inline; stroke: rgb(0, 0, 0);"/><rect class="node-body" width="1" height="59.96721311475409" style="fill: none;"/><text class="node-value" dy=".35em" text-anchor="middle" transform="translate(0.5,29.983606557377044) rotate(-90)" style="display: none;"/><text class="node-title" dy=".35em" text-anchor="end" transform="translate(-4,29.983606557377044)" style="display: inline;"><tspan x="0" dy="-0.33000000000000007em">Solar, hydro &amp;</tspan><tspan x="0" dy="1.1em"> wind power</tspan></text><rect class="node-click-target" x="-5" y="-5" width="10" height="64.96721311475409" style="fill: none; visibility: hidden; pointer-events: all;"/></g><g class="node" transform="translate(0,474.24877049180327)"><title>CDR</title><line x1="0" x2="0" y1="0" y2="116.06557377049182" style="display: inline; stroke: rgb(0, 0, 0);"/><rect class="node-body" width="1" height="116.06557377049182" style="fill: none;"/><text class="node-value" dy=".35em" text-anchor="middle" transform="translate(0.5,58.03278688524591) rotate(-90)" style="display: none;"/><text class="node-title" dy=".35em" text-anchor="end" transform="translate(-4,58.03278688524591)" style="display: inline;">CDR</text><rect class="node-click-target" x="-5" y="-5" width="10" height="121.06557377049182" style="fill: none; visibility: hidden; pointer-events: all;"/></g><g class="node" transform="translate(0,630.139344262295)"><title>CCS &amp; CCU</title><line x1="0" x2="0" y1="0" y2="54.1639344262295" style="display: inline; stroke: rgb(0, 0, 0);"/><rect class="node-body" width="1" height="54.1639344262295" style="fill: none;"/><text class="node-value" dy=".35em" text-anchor="middle" transform="translate(0.5,27.08196721311475) rotate(-90)" style="display: none;"/><text class="node-title" dy=".35em" text-anchor="end" transform="translate(-4,27.08196721311475)" style="display: inline;">CCS &amp; CCU</text><rect class="node-click-target" x="-5" y="-5" width="10" height="59.1639344262295" style="fill: none; visibility: hidden; pointer-events: all;"/></g><g class="node" transform="translate(0,724.1282786885246)"><title>Electric vehicles</title><line x1="0" x2="0" y1="0" y2="36.75409836065569" style="display: inline; stroke: rgb(0, 0, 0);"/><rect class="node-body" width="1" height="36.75409836065569" style="fill: none;"/><text class="node-value" dy=".35em" text-anchor="middle" transform="translate(0.5,18.377049180327845) rotate(-90)" style="display: none;"/><text class="node-title" dy=".35em" text-anchor="end" transform="translate(-4,18.377049180327845)" style="display: inline;">Electric vehicles</text><rect class="node-click-target" x="-5" y="-5" width="10" height="41.75409836065569" style="fill: none; visibility: hidden; pointer-events: all;"/></g><g class="node" transform="translate(0,800.7073770491803)"><title>Carbon pricing</title><line x1="0" x2="0" y1="0" y2="12.573770491803316" style="display: inline; stroke: rgb(0, 0, 0);"/><rect class="node-body" width="1" height="12.573770491803316" style="fill: none;"/><text class="node-value" dy=".35em" text-anchor="middle" transform="translate(0.5,6.286885245901658) rotate(-90)" style="display: none;"/><text class="node-title" dy=".35em" text-anchor="end" transform="translate(-4,6.286885245901658)" style="display: inline;">Carbon pricing</text><rect class="node-click-target" x="-5" y="-5" width="10" height="17.573770491803316" style="fill: none; visibility: hidden; pointer-events: all;"/></g><g class="node" transform="translate(0,853.1061475409836)"><title>General mitigation</title><line x1="0" x2="0" y1="0" y2="16.44262295081967" style="display: inline; stroke: rgb(0, 0, 0);"/><rect class="node-body" width="1" height="16.44262295081967" style="fill: none;"/><text class="node-value" dy=".35em" text-anchor="middle" transform="translate(0.5,8.221311475409834) rotate(-90)" style="display: none;"/><text class="node-title" dy=".35em" text-anchor="end" transform="translate(-4,8.221311475409834)" style="display: inline;">General mitigation</text><rect class="node-click-target" x="-5" y="-5" width="10" height="21.44262295081967" style="fill: none; visibility: hidden; pointer-events: all;"/></g><g class="node" transform="translate(0,909.3737704918033)"><title>Other</title><line x1="0" x2="0" y1="0" y2="46.426229508196684" style="display: inline; stroke: rgb(0, 0, 0);"/><rect class="node-body" width="1" height="46.426229508196684" style="fill: none;"/><text class="node-value" dy=".35em" text-anchor="middle" transform="translate(0.5,23.213114754098342) rotate(-90)" style="display: none;"/><text class="node-title" dy=".35em" text-anchor="end" transform="translate(-4,23.213114754098342)" style="display: inline;">Other</text><rect class="node-click-target" x="-5" y="-5" width="10" height="51.426229508196684" style="fill: none; visibility: hidden; pointer-events: all;"/></g><g class="node" transform="translate(446,106.2)"><title>Freshwater use</title><line x1="0" x2="0" y1="0" y2="97.68852459016394" style="display: inline; stroke: rgb(0, 0, 0);"/><rect class="node-body" width="1" height="97.68852459016394" style="fill: none;"/><text class="node-value" dy=".35em" text-anchor="middle" transform="translate(0.5,48.84426229508197) rotate(-90)" style="display: none;"/><text class="node-title" dy=".35em" text-anchor="start" transform="translate(5,48.84426229508197)" style="display: inline;">Freshwater use</text><rect class="node-click-target" x="-5" y="-5" width="10" height="102.68852459016394" style="fill: none; visibility: hidden; pointer-events: all;"/></g><g class="node" transform="translate(446,239.28852459016395)"><title>Land use &amp; 
degradation </title><line x1="0" x2="0" y1="0" y2="82.21311475409834" style="display: inline; stroke: rgb(0, 0, 0);"/><rect class="node-body" width="1" height="82.21311475409834" style="fill: none;"/><text class="node-value" dy=".35em" text-anchor="middle" transform="translate(0.5,41.10655737704917) rotate(-90)" style="display: none;"/><text class="node-title" dy=".35em" text-anchor="start" transform="translate(5,41.10655737704917)" style="display: inline;"><tspan x="0" dy="-0.33000000000000007em">Land use &amp; </tspan><tspan x="0" dy="1.1em">degradation </tspan></text><rect class="node-click-target" x="-5" y="-5" width="10" height="87.21311475409834" style="fill: none; visibility: hidden; pointer-events: all;"/></g><g class="node" transform="translate(446,356.9016393442623)"><title>Eutrophication &amp; 
biogeochemical flows</title><line x1="0" x2="0" y1="0" y2="62.86885245901641" style="display: inline; stroke: rgb(0, 0, 0);"/><rect class="node-body" width="1" height="62.86885245901641" style="fill: none;"/><text class="node-value" dy=".35em" text-anchor="middle" transform="translate(0.5,31.434426229508205) rotate(-90)" style="display: none;"/><text class="node-title" dy=".35em" text-anchor="start" transform="translate(5,31.434426229508205)" style="display: inline;"><tspan x="0" dy="-0.33000000000000007em">Eutrophication &amp; </tspan><tspan x="0" dy="1.1em">biogeochemical flows</tspan></text><rect class="node-click-target" x="-5" y="-5" width="10" height="67.86885245901641" style="fill: none; visibility: hidden; pointer-events: all;"/></g><g class="node" transform="translate(446,455.1704918032787)"><title>Biodiversity &amp; 
ecosystem functioning</title><line x1="0" x2="0" y1="0" y2="75.44262295081973" style="display: inline; stroke: rgb(0, 0, 0);"/><rect class="node-body" width="1" height="75.44262295081973" style="fill: none;"/><text class="node-value" dy=".35em" text-anchor="middle" transform="translate(0.5,37.72131147540986) rotate(-90)" style="display: none;"/><text class="node-title" dy=".35em" text-anchor="start" transform="translate(5,37.72131147540986)" style="display: inline;"><tspan x="0" dy="-0.33000000000000007em">Biodiversity &amp; </tspan><tspan x="0" dy="1.1em">ecosystem functioning</tspan></text><rect class="node-click-target" x="-5" y="-5" width="10" height="80.44262295081973" style="fill: none; visibility: hidden; pointer-events: all;"/></g><g class="node" transform="translate(446,566.0131147540984)"><title>Air pollution</title><line x1="0" x2="0" y1="0" y2="46.426229508196684" style="display: inline; stroke: rgb(0, 0, 0);"/><rect class="node-body" width="1" height="46.426229508196684" style="fill: none;"/><text class="node-value" dy=".35em" text-anchor="middle" transform="translate(0.5,23.213114754098342) rotate(-90)" style="display: none;"/><text class="node-title" dy=".35em" text-anchor="start" transform="translate(5,23.213114754098342)" style="display: inline;">Air pollution</text><rect class="node-click-target" x="-5" y="-5" width="10" height="51.426229508196684" style="fill: none; visibility: hidden; pointer-events: all;"/></g><g class="node" transform="translate(446,647.8393442622951)"><title>Acidification</title><line x1="0" x2="0" y1="0" y2="29.983606557377016" style="display: inline; stroke: rgb(0, 0, 0);"/><rect class="node-body" width="1" height="29.983606557377016" style="fill: none;"/><text class="node-value" dy=".35em" text-anchor="middle" transform="translate(0.5,14.991803278688508) rotate(-90)" style="display: none;"/><text class="node-title" dy=".35em" text-anchor="start" transform="translate(5,14.991803278688508)" style="display: inline;">Acidification</text><rect class="node-click-target" x="-5" y="-5" width="10" height="34.983606557377016" style="fill: none; visibility: hidden; pointer-events: all;"/></g><g class="node" transform="translate(446,713.2229508196722)"><title>Human toxicity</title><line x1="0" x2="0" y1="0" y2="50.29508196721315" style="display: inline; stroke: rgb(0, 0, 0);"/><rect class="node-body" width="1" height="50.29508196721315" style="fill: none;"/><text class="node-value" dy=".35em" text-anchor="middle" transform="translate(0.5,25.147540983606575) rotate(-90)" style="display: none;"/><text class="node-title" dy=".35em" text-anchor="start" transform="translate(5,25.147540983606575)" style="display: inline;">Human toxicity</text><rect class="node-click-target" x="-5" y="-5" width="10" height="55.29508196721315" style="fill: none; visibility: hidden; pointer-events: all;"/></g><g class="node" transform="translate(446,798.9180327868853)"><title>Ecotoxicity</title><line x1="0" x2="0" y1="0" y2="36.75409836065569" style="display: inline; stroke: rgb(0, 0, 0);"/><rect class="node-body" width="1" height="36.75409836065569" style="fill: none;"/><text class="node-value" dy=".35em" text-anchor="middle" transform="translate(0.5,18.377049180327845) rotate(-90)" style="display: none;"/><text class="node-title" dy=".35em" text-anchor="start" transform="translate(5,18.377049180327845)" style="display: inline;">Ecotoxicity</text><rect class="node-click-target" x="-5" y="-5" width="10" height="41.75409836065569" style="fill: none; visibility: hidden; pointer-events: all;"/></g><g class="node" transform="translate(446,871.0721311475411)"><title>Mineral &amp; metal 
depletion</title><line x1="0" x2="0" y1="0" y2="36.75409836065569" style="display: inline; stroke: rgb(0, 0, 0);"/><rect class="node-body" width="1" height="36.75409836065569" style="fill: none;"/><text class="node-value" dy=".35em" text-anchor="middle" transform="translate(0.5,18.377049180327845) rotate(-90)" style="display: none;"/><text class="node-title" dy=".35em" text-anchor="start" transform="translate(5,18.377049180327845)" style="display: inline;"><tspan x="0" dy="-0.33000000000000007em">Mineral &amp; metal </tspan><tspan x="0" dy="1.1em">depletion</tspan></text><rect class="node-click-target" x="-5" y="-5" width="10" height="41.75409836065569" style="fill: none; visibility: hidden; pointer-events: all;"/></g><g class="node" transform="translate(446,943.2262295081969)"><title>Environmental effects 
of mining</title><line x1="0" x2="0" y1="0" y2="12.573770491803316" style="display: inline; stroke: rgb(0, 0, 0);"/><rect class="node-body" width="1" height="12.573770491803316" style="fill: none;"/><text class="node-value" dy=".35em" text-anchor="middle" transform="translate(0.5,6.286885245901658) rotate(-90)" style="display: none;"/><text class="node-title" dy=".35em" text-anchor="start" transform="translate(5,6.286885245901658)" style="display: inline;"><tspan x="0" dy="-0.33000000000000007em">Environmental effects </tspan><tspan x="0" dy="1.1em">of mining</tspan></text><rect class="node-click-target" x="-5" y="-5" width="10" height="17.573770491803316" style="fill: none; visibility: hidden; pointer-events: all;"/></g></g><g class="slice-titles"/></g></svg>