<?xml version="1.0" standalone="no"?><!DOCTYPE svg PUBLIC "-//W3C//DTD SVG 1.1//EN" "http://www.w3.org/Graphics/SVG/1.1/DTD/svg11.dtd"><svg xmlns="http://www.w3.org/2000/svg" width="480" height="400" viewBox="0 0 480 400" style="font-family: &quot;Helvetica Neue&quot;, Helvetica, Arial, sans-serif;"><g class="sankey" transform="translate(140,0)"><g class="groups"><g class="group" transform="translate(0,40)" style="display: none;"><rect x="-10" y="-20" width="21" height="350" style="fill: rgb(238, 238, 238); stroke: rgb(187, 187, 187); stroke-width: 0.5;"/><text x="-10" y="-25" style="fill: rgb(153, 153, 153);"/></g><g class="group" transform="translate(169,40)" style="display: none;"><rect x="-10" y="-20" width="21" height="350.00000000000006" style="fill: rgb(238, 238, 238); stroke: rgb(187, 187, 187); stroke-width: 0.5;"/><text x="-10" y="-25" style="fill: rgb(153, 153, 153);"/></g></g><g class="links"><g class="link" style="opacity: 0.8;"><path d="M1,208.36034115138597 A999 999 0.030650606165345318 0 0 31.61516141554959,207.8911177884909 L138.32354697000486,204.61941648035022 A1001 1001 0.030650606165345318 0 1 169,204.14925373134326 L169,206.14925373134326 A999 999 0.030650606165345318 0 0 138.38483858445042,206.61847709423833 L31.676453029995134,209.890178402379 A1001 1001 0.030650606165345318 0 1 1,210.36034115138597 Z" style="fill: rgb(68, 170, 153);"/><title>DACCS → Acidification
DACCS
1.00</title><text class="label" dy="0.35em" x="5" y="209.36034115138597"/></g><g class="link" style="opacity: 0.8;"><path d="M1,202.3901918976546 A66.10402020815904 66.10402020815904 0.5218842084949469 0 0 33.953806442623815,193.59051819674391 L135.04916474312697,135.4539705744603 A68.10402020815904 68.10402020815904 0.5218842084949469 0 1 169,126.38805970149254 L169,128.38805970149252 A66.10402020815904 66.10402020815904 0.5218842084949469 0 0 136.0461935573762,137.18773340240324 L34.950835256873034,195.32428102468685 A68.10402020815904 68.10402020815904 0.5218842084949469 0 1 1,204.3901918976546 Z" style="fill: rgb(68, 170, 153);"/><title>DACCS → Biodiv. &amp; ES func.
DACCS
1.00</title><text class="label" dy="0.35em" x="5" y="203.3901918976546"/></g><g class="link" style="opacity: 0.8;"><path d="M1,218.80810234541585 A56.39409955691646 56.39409955691646 0.7035432961731871 0 1 37.482679538269025,232.19861416196616 L133.81116786154442,313.9201996055258 A54.39409955691646 54.39409955691646 0.7035432961731871 0 0 169,326.8358208955225 L169,328.8358208955225 A56.39409955691646 56.39409955691646 0.7035432961731871 0 1 132.51732046173098,315.4453090789722 L36.18883213845557,233.72372363541254 A54.39409955691646 54.39409955691646 0.7035432961731871 0 0 1,220.80810234541585 Z" style="fill: rgb(68, 170, 153);"/><title>DACCS → Ecotoxicity
DACCS
1.00</title><text class="label" dy="0.35em" x="5" y="219.80810234541585"/></g><g class="link" style="opacity: 0.8;"><path d="M1,217.315565031983 A63.96741490547336 63.96741490547336 0.5702752196903302 0 1 35.53368759436329,227.43825326135655 L135.54603987767524,291.581866620292 A61.96741490547336 61.96741490547336 0.5702752196903302 0 0 169,301.3880597014926 L169,303.3880597014926 A63.96741490547336 63.96741490547336 0.5702752196903302 0 1 134.4663124056367,293.265371472119 L34.453960122324766,229.12175811318363 A61.96741490547336 61.96741490547336 0.5702752196903302 0 0 1,219.315565031983 Z" style="fill: rgb(68, 170, 153);"/><title>DACCS → Human toxicity
DACCS
1.00</title><text class="label" dy="0.35em" x="5" y="218.315565031983"/></g><g class="link" style="opacity: 0.8;"><path d="M1,253.861407249467 A69.02210849932764 69.02210849932764 0.5124848753401336 0 1 34.84460429644273,262.7287634701079 L136.13608450116976,319.71794447858116 A67.02210849932764 67.02210849932764 0.5124848753401336 0 0 169,328.3283582089553 L169,330.3283582089553 A69.02210849932764 69.02210849932764 0.5124848753401336 0 1 135.15539570355725,321.4610019883144 L33.86391549883023,264.47182097984114 A67.02210849932764 67.02210849932764 0.5124848753401336 0 0 1,255.861407249467 Z" style="fill: rgb(17, 119, 51);"/><title>Biochar → Ecotoxicity
Biochar
1.00</title><text class="label" dy="0.35em" x="5" y="254.861407249467"/></g><g class="link" style="opacity: 0.8;"><path d="M1,246.3987206823028 A666.2478567851005 666.2478567851005 0.046315339387542176 0 0 31.846464662613897,245.68426072155245 L138.0609377722353,240.761380807385 A668.2478567851005 668.2478567851005 0.046315339387542176 0 1 169,240.04477611940297 L169,242.04477611940297 A666.2478567851005 666.2478567851005 0.046315339387542176 0 0 138.1535353373861,242.75923608015333 L31.93906222776468,247.68211599432078 A668.2478567851005 668.2478567851005 0.046315339387542176 0 1 1,248.3987206823028 Z" style="fill: rgb(17, 119, 51);"/><title>Biochar → Eutro. &amp; biogeochem.
Biochar
1.00</title><text class="label" dy="0.35em" x="5" y="247.3987206823028"/></g><g class="link" style="opacity: 0.8;"><path d="M1,241.9211087420043 A49.434748102030866 49.434748102030866 0.9684315552836971 0 0 41.73413643489075,220.4957242317252 L120.92155198715993,105.33312946350952 A58.34776859576524 58.34776859576524 0.9684315552836971 0 1 169,80.04477611940298 L169,82.04477611940298 A56.34776859576524 56.34776859576524 0.9684315552836971 0 0 122.56954810320435,106.4663147093994 L43.382132550935175,221.62890947761508 A51.434748102030866 51.434748102030866 0.9684315552836971 0 1 1,243.9211087420043 Z" style="fill: rgb(17, 119, 51);"/><title>Biochar → Freshwater use
Biochar
1.00</title><text class="label" dy="0.35em" x="5" y="242.9211087420043"/></g><g class="link" style="opacity: 0.8;"><path d="M1,255.35394456289987 A57.577910412416045 57.577910412416045 0.6763323860022481 0 1 37.04014248067354,268.0283595942995 L134.21173144884307,346.01956900395345 A55.577910412416045 55.577910412416045 0.6763323860022481 0 0 169,358.2537313432837 L169,360.2537313432837 A57.577910412416045 57.577910412416045 0.6763323860022481 0 1 132.95985751932648,347.57931631188404 L35.78826855115692,269.5881069022301 A55.577910412416045 55.577910412416045 0.6763323860022481 0 0 1,257.35394456289987 Z" style="fill: rgb(17, 119, 51);"/><title>Biochar → M &amp; m depletion
Biochar
1.00</title><text class="label" dy="0.35em" x="5" y="256.35394456289987"/></g><g class="link" style="opacity: 0.8;"><path d="M1,273.9893390191898 A49.86601345461606 49.86601345461606 1.0732949410284836 0 0 44.82114164474282,247.9209481938898 L119.03688944304272,111.25944854755821 A56.855231282332404 56.855231282332404 1.0732949410284836 0 1 169,81.53731343283582 L169,83.53731343283582 A54.855231282332404 54.855231282332404 1.0732949410284836 0 0 120.79444488447078,112.21391115568207 L46.57869708617089,248.87541080201365 A51.86601345461606 51.86601345461606 1.0732949410284836 0 1 1,275.9893390191898 Z" style="fill: rgb(153, 153, 51);"/><title>EW → Freshwater use
EW
1.00</title><text class="label" dy="0.35em" x="5" y="274.9893390191898"/></g><g class="link" style="opacity: 0.8;"><path d="M1,338.12579957356076 A999 999 0.005172403517641699 0 0 6.167208073679624,338.11243610115883 L163.82244716541211,337.2969723156528 A1001 1001 0.005172403517641699 0 1 169,337.28358208955234 L169,339.28358208955234 A999 999 0.005172403517641699 0 0 163.83279192632037,339.29694556195426 L6.177552834587892,340.1124093474603 A1001 1001 0.005172403517641699 0 1 1,340.12579957356076 Z" style="fill: rgb(204, 102, 119);"/><title>SCS → Ecotoxicity
SCS
1.00</title><text class="label" dy="0.35em" x="5" y="339.12579957356076"/></g><g class="link" style="opacity: 0.8;"><path d="M1,332.1556503198294 A53.36269396889957 53.36269396889957 1.2158100511189778 0 0 51.035597192848186,297.3406279345404 L117.08910028880409,119.14971813828016 A55.36269396889957 55.36269396889957 1.2158100511189778 0 1 169,83.02985074626865 L169,85.02985074626865 A53.36269396889957 53.36269396889957 1.2158100511189778 0 0 118.96440280715181,119.84487313155769 L52.91089971119591,298.0357829278179 A55.36269396889957 55.36269396889957 1.2158100511189778 0 1 1,334.1556503198294 Z" style="fill: rgb(204, 102, 119);"/><title>SCS → Freshwater use
SCS
1.00</title><text class="label" dy="0.35em" x="5" y="333.1556503198294"/></g><g class="link" style="opacity: 0.8;"><path d="M1,83.28358208955224 A55.88417521934794 55.88417521934794 0.7408685314863535 0 1 38.71785275539896,97.93179456436339 L133.5351472789446,184.65960484152748 A52.54604646888693 52.54604646888693 0.7408685314863535 0 0 169,198.43283582089552 L169,201.41791044776122 A55.531121095752596 55.531121095752596 0.7408685314863535 0 1 131.5204337254552,186.86223958776736 L36.70313920190956,100.1344293106033 A52.89910059248227 52.89910059248227 0.7408685314863535 0 0 1,86.26865671641791 Z" style="fill: rgb(51, 34, 136);"/><title>ARR → Acidification
ARR
2.00</title><text class="label" dy="0.35em" x="5" y="84.77611940298507"/></g><g class="link" style="opacity: 0.8;"><path d="M1,86.26865671641791 A52.89910059248227 52.89910059248227 0.8468265281313925 0 1 40.63106390754087,104.12929819537794 L131.60530083176633,207.02782423507824 A49.9140259656166 49.9140259656166 0.8468265281313925 0 0 169,223.88059701492537 L169,226.86567164179107 A52.89910059248227 52.89910059248227 0.8468265281313925 0 1 129.36893609245914,209.00503016283102 L38.394699168233664,106.10650412313069 A49.9140259656166 49.9140259656166 0.8468265281313925 0 0 1,89.25373134328358 Z" style="fill: rgb(51, 34, 136);"/><title>ARR → Eutro. &amp; biogeochem.
ARR
2.00</title><text class="label" dy="0.35em" x="5" y="87.76119402985074"/></g><g class="link" style="opacity: 0.8;"><path d="M1,152.66524520255865 A95.64376642450803 95.64376642450803 0.3464311710255892 0 1 33.47518767627727,158.34739624997144 L137.53837402626894,195.91310127584887 A92.65869179764236 92.65869179764236 0.3464311710255892 0 0 169,201.4179104477612 L169,204.40298507462688 A95.64376642450803 95.64376642450803 0.3464311710255892 0 1 136.52481232372273,198.7208340272141 L32.46162597373106,161.15512900133666 A92.65869179764236 92.65869179764236 0.3464311710255892 0 0 1,155.65031982942435 Z" style="fill: rgb(136, 204, 238);"/><title>BECCS → Acidification
BECCS
2.00</title><text class="label" dy="0.35em" x="5" y="154.1577825159915"/></g><g class="link" style="opacity: 0.8;"><path d="M1,178.03837953091684 A52.386590409645905 52.386590409645905 0.8836582365609801 0 1 41.49821678108053,197.19472329235668 L130.80943863991914,306.0396940237937 A49.40151578278024 49.40151578278024 0.8836582365609801 0 0 169,324.10447761194035 L169,327.089552238806 A52.386590409645905 52.386590409645905 0.8836582365609801 0 1 128.50178321891948,307.9332084773662 L39.19056136008085,199.08823774592918 A49.40151578278024 49.40151578278024 0.8836582365609801 0 0 1,181.02345415778254 Z" style="fill: rgb(136, 204, 238);"/><title>BECCS → Ecotoxicity
BECCS
2.00</title><text class="label" dy="0.35em" x="5" y="179.5309168443497"/></g><g class="link" style="opacity: 0.8;"><path d="M1,210.1066098081024 A161.1815858459609 161.1815858459609 0.19677327469853423 0 1 32.511950425841455,213.21700727307413 L138.07164926493914,234.26063977090163 A158.1965112190952 158.1965112190952 0.19677327469853423 0 0 169,237.3134328358209 L169,240.2985074626866 A161.1815858459609 161.1815858459609 0.19677327469853423 0 1 137.48804957415854,237.18810999771486 L31.928350735060864,216.14447749988736 A158.1965112190952 158.1965112190952 0.19677327469853423 0 0 1,213.0916844349681 Z" style="fill: rgb(68, 170, 153);"/><title>DACCS → Eutro. &amp; biogeochem.
DACCS
2.00</title><text class="label" dy="0.35em" x="5" y="211.59914712153525"/></g><g class="link" style="opacity: 0.8;"><path d="M1,243.66737739872073 A116.25669563757346 116.25669563757346 0.27114116233769336 0 0 32.13715656184094,239.42004191381847 L137.06334767152163,210.25191493258544 A119.24177026443913 119.24177026443913 0.27114116233769336 0 1 169,205.8955223880597 L169,208.8805970149254 A116.25669563757346 116.25669563757346 0.27114116233769336 0 0 137.86284343815908,213.12793249982766 L32.93665232847836,242.2960594810607 A119.24177026443913 119.24177026443913 0.27114116233769336 0 1 1,246.65245202558643 Z" style="fill: rgb(17, 119, 51);"/><title>Biochar → Acidification
Biochar
2.00</title><text class="label" dy="0.35em" x="5" y="245.15991471215358"/></g><g class="link" style="opacity: 0.8;"><path d="M1,278.7206823027719 A998.5074626865671 998.5074626865671 0.006399105437597807 0 0 7.389510926882904,278.7002386559525 L162.59138739620562,277.7070719280293 A1001.4925373134329 1001.4925373134329 0.006399105437597807 0 1 169,277.6865671641791 L169,280.67164179104475 A998.5074626865671 998.5074626865671 0.006399105437597807 0 0 162.6104890731171,280.69208543786414 L7.408612603794364,281.68525216578735 A1001.4925373134329 1001.4925373134329 0.006399105437597807 0 1 1,281.7057569296375 Z" style="fill: rgb(153, 153, 51);"/><title>EW → Air pollution
EW
2.00</title><text class="label" dy="0.35em" x="5" y="280.2132196162047"/></g><g class="link" style="opacity: 0.8;"><path d="M1,281.7057569296376 A202.27482302771892 202.27482302771892 0.15546604712744028 0 1 32.32034332049691,284.14529747405425 L138.14186725396456,300.73078938072655 A199.28974840085323 199.28974840085323 0.15546604712744028 0 0 169,303.13432835820896 L169,306.1194029850746 A202.27482302771892 202.27482302771892 0.15546604712744028 0 1 137.67965667950307,303.6798624406579 L31.858132746035427,287.0943705339856 A199.28974840085323 199.28974840085323 0.15546604712744028 0 0 1,284.6908315565032 Z" style="fill: rgb(153, 153, 51);"/><title>EW → Human toxicity
EW
2.00</title><text class="label" dy="0.35em" x="5" y="283.1982942430704"/></g><g class="link" style="opacity: 0.8;"><path d="M1,275.7356076759062 A57.23023017126751 57.23023017126751 0.6346166799770923 0 0 34.93002193057854,264.5928254405649 L133.30022024648656,192.17174040208752 A60.215304798133175 60.215304798133175 0.6346166799770923 0 1 169,180.44776119402985 L169,183.43283582089555 A57.23023017126751 57.23023017126751 0.6346166799770923 0 0 135.06997806942144,194.57561805623672 L36.69977975351345,266.9967030947142 A60.215304798133175 60.215304798133175 0.6346166799770923 0 1 1,278.7206823027718 Z" style="fill: rgb(153, 153, 51);"/><title>EW → Land Use &amp; deg.
EW
2.00</title><text class="label" dy="0.35em" x="5" y="277.228144989339"/></g><g class="link" style="opacity: 0.8;"><path d="M1,306.31130063965884 A48.994654732338766 48.994654732338766 1.0244768429609505 0 0 42.86311538809435,282.77162110558305 L120.20847276002912,155.56986211052214 A57.103347632501496 57.103347632501496 1.0244768429609505 0 1 169,128.13432835820896 L169,131.11940298507466 A54.11827300563583 54.11827300563583 1.0244768429609505 0 0 122.75904739371602,157.12074558968823 L45.41369002178123,284.3225045847491 A51.979729359204434 51.979729359204434 1.0244768429609505 0 1 1,309.2963752665245 Z" style="fill: rgb(221, 204, 119);"/><title>Ocean IF → Biodiv. &amp; ES func.
Ocean IF
2.00</title><text class="label" dy="0.35em" x="5" y="307.80383795309166"/></g><g class="link" style="opacity: 0.8;"><path d="M1,312.28144989339023 A194.92969945118134 194.92969945118134 0.16151020345044698 0 1 32.34643803480942,314.818351790563 L138.1335886470342,332.0541859990357 A191.94462482431564 191.94462482431564 0.16151020345044698 0 0 169,334.5522388059702 L169,337.53731343283584 A194.92969945118134 194.92969945118134 0.16151020345044698 0 1 137.65356196519056,335.0004115356631 L31.866411352965788,317.76457732719035 A191.94462482431564 191.94462482431564 0.16151020345044698 0 0 1,315.26652452025587 Z" style="fill: rgb(221, 204, 119);"/><title>Ocean IF → Ecotoxicity
Ocean IF
2.00</title><text class="label" dy="0.35em" x="5" y="313.77398720682305"/></g><g class="link" style="opacity: 0.8;"><path d="M1,309.29637526652454 A998.5074626865671 998.5074626865671 0.021714299136387227 0 0 22.68018590071174,309.06098099621676 L147.25500038957014,306.3555009751741 A1001.4925373134329 1001.4925373134329 0.021714299136387227 0 1 169,306.11940298507466 L169,309.1044776119403 A998.5074626865671 998.5074626865671 0.021714299136387227 0 0 147.31981409928827,309.3398718822481 L22.744999610429865,312.04535190329074 A1001.4925373134329 1001.4925373134329 0.021714299136387227 0 1 1,312.2814498933902 Z" style="fill: rgb(221, 204, 119);"/><title>Ocean IF → Human toxicity
Ocean IF
2.00</title><text class="label" dy="0.35em" x="5" y="310.78891257995735"/></g><g class="link" style="opacity: 0.8;"><path d="M1,357.0149253731343 A51.13319837877016 51.13319837877016 1.1566632642168346 0 0 47.810679889576015,326.4575434962264 L119.45658722386315,163.46067611456013 A54.11827300563583 54.11827300563583 1.1566632642168346 0 1 169,131.11940298507463 L169,134.10447761194033 A51.13319837877016 51.13319837877016 1.1566632642168346 0 0 122.18932011042398,164.6618594888482 L50.543412776136854,327.6587268705145 A54.11827300563583 54.11827300563583 1.1566632642168346 0 1 1,359.99999999999994 Z" style="fill: rgb(170, 68, 153);"/><title>Ocean AE → Biodiv. &amp; ES func.
Ocean AE
2.00</title><text class="label" dy="0.35em" x="5" y="358.5074626865671"/></g><g class="link" style="opacity: 0.8;"><path d="M1,213.09168443496807 A88.54785588973543 88.54785588973543 0.38253592907001854 0 1 34.05263908774677,219.49183291905214 L137.61873838323308,261.16229469877993 A84.07024394943691 84.07024394943691 0.38253592907001854 0 0 169,267.23880597014926 L169,271.7164179104478 A88.54785588973543 88.54785588973543 0.38253592907001854 0 1 135.94736091225323,265.3162694263637 L32.38126161676695,223.64580764663592 A84.07024394943691 84.07024394943691 0.38253592907001854 0 0 1,217.5692963752666 Z" style="fill: rgb(68, 170, 153);"/><title>DACCS → Air pollution
DACCS
3.00</title><text class="label" dy="0.35em" x="5" y="215.33049040511733"/></g><g class="link" style="opacity: 0.8;"><path d="M1,198.16631130063968 A50.71667317943965 50.71667317943965 0.7925998409078122 0 0 37.119438621466486,183.0525465987417 L124.43767560489806,94.46748891315417 A62.57164919278016 62.57164919278016 0.7925998409078122 0 1 169,75.82089552238806 L169,80.29850746268657 A58.094037252481655 58.094037252481655 0.7925998409078122 0 0 127.62654465938331,97.61075518269769 L40.30830767595174,186.19581286828523 A55.194285119738154 55.194285119738154 0.7925998409078122 0 1 1,202.6439232409382 Z" style="fill: rgb(68, 170, 153);"/><title>DACCS → Freshwater use
DACCS
3.00</title><text class="label" dy="0.35em" x="5" y="200.40511727078894"/></g><g class="link" style="opacity: 0.8;"><path d="M1,204.13646055437104 A152.29336252661184 152.29336252661184 0.20359332072703196 0 0 31.792154483771203,200.99104971302233 L137.30251834834283,179.20803903773853 A156.77097446691036 156.77097446691036 0.20359332072703196 0 1 169,175.97014925373134 L169,180.44776119402985 A152.29336252661184 152.29336252661184 0.20359332072703196 0 0 138.2078455162288,183.59317203537856 L32.697481651657185,205.37618271066236 A156.77097446691036 156.77097446691036 0.20359332072703196 0 1 1,208.61407249466956 Z" style="fill: rgb(68, 170, 153);"/><title>DACCS → Land Use &amp; deg.
DACCS
3.00</title><text class="label" dy="0.35em" x="5" y="206.3752665245203"/></g><g class="link" style="opacity: 0.8;"><path d="M1,220.55437100213229 A53.9783132352841 53.9783132352841 0.8281596573642758 0 1 40.76518207328702,238.03078573330046 L132.53342144704501,338.0031405090664 A49.500701294985596 49.500701294985596 0.8281596573642758 0 0 169,354.0298507462687 L169,358.50746268656724 A53.9783132352841 53.9783132352841 0.8281596573642758 0 1 129.23481792671296,341.031047955399 L37.46657855295497,241.05869317963314 A49.500701294985596 49.500701294985596 0.8281596573642758 0 0 1,225.0319829424308 Z" style="fill: rgb(68, 170, 153);"/><title>DACCS → M &amp; m depletion
DACCS
3.00</title><text class="label" dy="0.35em" x="5" y="222.79317697228154"/></g><g class="link" style="opacity: 0.8;"><path d="M1,284.69083155650327 A102.33077272952669 102.33077272952669 0.32357707722488094 0 1 33.53709549096054,290.0013771968597 L137.88660613257778,324.9964508433148 A97.85316078922817 97.85316078922817 0.32357707722488094 0 0 169,330.0746268656717 L169,334.5522388059702 A102.33077272952669 102.33077272952669 0.32357707722488094 0 1 136.46290450903948,329.24169316561375 L32.11339386742222,294.2466195191587 A97.85316078922817 97.85316078922817 0.32357707722488094 0 0 1,289.1684434968018 Z" style="fill: rgb(153, 153, 51);"/><title>EW → Ecotoxicity
EW
3.00</title><text class="label" dy="0.35em" x="5" y="286.9296375266525"/></g><g class="link" style="opacity: 0.8;"><path d="M1,333.9019189765458 A57.53982515991473 57.53982515991473 0.6167377283957515 0 0 34.27971035532157,323.3013349491788 L133.1305419691767,253.21654096620435 A62.01743710021323 62.01743710021323 0.6167377283957515 0 1 169,241.7910447761194 L169,246.26865671641792 A57.53982515991473 57.53982515991473 0.6167377283957515 0 0 135.72028964467842,256.8692407437849 L36.86945803082328,326.95403472675935 A62.01743710021323 62.01743710021323 0.6167377283957515 0 1 1,338.3795309168443 Z" style="fill: rgb(204, 102, 119);"/><title>SCS → Eutro. &amp; biogeochem.
SCS
3.00</title><text class="label" dy="0.35em" x="5" y="336.14072494669506"/></g><g class="link" style="opacity: 0.8;"><path d="M1,166.09808102345417 A64.3268889171086 64.3268889171086 0.6381306576797022 0 1 39.31920656041147,178.75692327403448 L135.77520084237239,250.29276423073847 A55.77484913046187 55.77484913046187 0.6381306576797022 0 0 169,261.2686567164179 L169,267.2388059701493 A61.74499838419322 61.74499838419322 0.6381306576797022 0 1 132.2188127393349,255.08805210243108 L35.76281845737401,183.55221114572709 A58.356739663377255 58.356739663377255 0.6381306576797022 0 0 1,172.0682302771855 Z" style="fill: rgb(136, 204, 238);"/><title>BECCS → Air pollution
BECCS
4.00</title><text class="label" dy="0.35em" x="5" y="169.08315565031984"/></g><g class="link" style="opacity: 0.8;"><path d="M1,172.0682302771855 A58.356739663377255 58.356739663377255 0.787614918568112 0 1 42.355818057017814,189.2520980833067 L133.7032050121702,281.0053750468012 A49.806918901144726 49.806918901144726 0.787614918568112 0 0 169,295.6716417910448 L169,301.6417910447762 A55.777068154876076 55.777068154876076 0.787614918568112 0 1 129.47232426498033,285.21753959901037 L38.12493730982794,193.4642626355158 A52.386590409645905 52.386590409645905 0.787614918568112 0 0 1,178.03837953091684 Z" style="fill: rgb(136, 204, 238);"/><title>BECCS → Human toxicity
BECCS
4.00</title><text class="label" dy="0.35em" x="5" y="175.05330490405117"/></g><g class="link" style="opacity: 0.8;"><path d="M1,248.14498933901925 A186.1280616398528 186.1280616398528 0.1708292975346457 0 1 32.64170232136561,250.85424604324137 L138.37322086558626,269.09406194944717 A180.15791238612147 180.15791238612147 0.1708292975346457 0 0 169,271.7164179104478 L169,277.68656716417917 A186.1280616398528 186.1280616398528 0.1708292975346457 0 1 137.3582976786344,274.977310459957 L31.626779134413756,256.7374945537512 A180.15791238612147 180.15791238612147 0.1708292975346457 0 0 1,254.11513859275058 Z" style="fill: rgb(17, 119, 51);"/><title>Biochar → Air pollution
Biochar
4.00</title><text class="label" dy="0.35em" x="5" y="251.13006396588491"/></g><g class="link" style="opacity: 0.8;"><path d="M1,74.32835820895522 A72.3110358387702 72.3110358387702 0.5143827244248824 0 1 36.57685209422102,83.68565310136204 L137.82909606811765,140.90601926095863 A63.355811958173184 63.355811958173184 0.5143827244248824 0 0 169,149.1044776119403 L169,158.05970149253733 A72.3110358387702 72.3110358387702 0.5143827244248824 0 1 133.42314790577896,148.7024066001305 L32.17090393188234,91.48204044053391 A63.355811958173184 63.355811958173184 0.5143827244248824 0 0 1,83.28358208955223 Z" style="fill: rgb(51, 34, 136);"/><title>ARR → Land Use &amp; deg.
ARR
6.00</title><text class="label" dy="0.35em" x="5" y="78.80597014925372"/></g><g class="link" style="opacity: 0.8;"><path d="M1,155.65031982942432 A75.3540396562951 75.3540396562951 0.4923753876915511 0 1 36.621394862544534,164.6014414732617 L138.31747541726554,219.15561393799038 A64.90627846226525 64.90627846226525 0.4923753876915511 0 0 169,226.86567164179104 L169,237.3134328358209 A75.3540396562951 75.3540396562951 0.4923753876915511 0 1 133.37860513745545,228.3623111919835 L31.68252458273444,173.80813872725483 A64.90627846226525 64.90627846226525 0.4923753876915511 0 0 1,166.09808102345417 Z" style="fill: rgb(136, 204, 238);"/><title>BECCS → Eutro. &amp; biogeochem.
BECCS
7.00</title><text class="label" dy="0.35em" x="5" y="160.87420042643924"/></g><g class="link" style="opacity: 0.8;"><path d="M1,60.8955223880597 A121.43572435328159 121.43572435328159 0.27884370156539084 0 1 34.42447845683259,65.58605673723481 L139.27283165434605,95.60443713099146 A108.00288853238607 108.00288853238607 0.27884370156539084 0 0 169,99.77611940298507 L169,113.2089552238806 A121.43572435328159 121.43572435328159 0.27884370156539084 0 1 135.5755215431674,108.51842087470548 L30.727168345653936,78.50004048094884 A108.00288853238607 108.00288853238607 0.27884370156539084 0 0 1,74.32835820895522 Z" style="fill: rgb(51, 34, 136);"/><title>ARR → Biodiv. &amp; ES func.
ARR
9.00</title><text class="label" dy="0.35em" x="5" y="67.61194029850746"/></g><g class="link" style="opacity: 0.8;"><path d="M1,121.32196162046908 A516.329284691616 516.329284691616 0.05912057006001703 0 0 31.50790231731952,120.41987656654462 L137.69840331898922,114.1345089455431 A529.7621205125114 529.7621205125114 0.05912057006001703 0 1 169,113.2089552238806 L169,126.64179104477611 A516.329284691616 516.329284691616 0.05912057006001703 0 0 138.49209768268048,127.54387609870057 L32.30159668101077,133.8292437197021 A529.7621205125114 529.7621205125114 0.05912057006001703 0 1 1,134.75479744136462 Z" style="fill: rgb(136, 204, 238);"/><title>BECCS → Biodiv. &amp; ES func.
BECCS
9.00</title><text class="label" dy="0.35em" x="5" y="128.03837953091684"/></g><g class="link" style="opacity: 0.8;"><path d="M1,106.39658848614073 A92.40644710574853 92.40644710574853 0.3243764267472511 0 0 30.451578988517298,101.57756035018848 L134.79143900896375,66.49291388854651 A107.3318202400769 107.3318202400769 0.3243764267472511 0 1 169,60.89552238805971 L169,75.82089552238807 A92.40644710574853 92.40644710574853 0.3243764267472511 0 0 139.5484210114827,80.63992365834032 L35.20856099103625,115.72457011998229 A107.3318202400769 107.3318202400769 0.3243764267472511 0 1 1,121.3219616204691 Z" style="fill: rgb(136, 204, 238);"/><title>BECCS → Freshwater use
BECCS
10.0</title><text class="label" dy="0.35em" x="5" y="113.85927505330491"/></g><g class="link" style="opacity: 0.8;"><path d="M1,134.75479744136462 A194.11229526137467 194.11229526137467 0.16892116076500585 0 1 33.633957843541495,137.51765328076172 L139.3771280663476,155.5517701808039 A176.20184750018066 176.20184750018066 0.16892116076500585 0 0 169,158.0597014925373 L169,175.9701492537313 A194.11229526137467 194.11229526137467 0.16892116076500585 0 1 136.3660421564585,173.2072934143342 L30.62287193365239,155.173176514292 A176.20184750018066 176.20184750018066 0.16892116076500585 0 0 1,152.66524520255862 Z" style="fill: rgb(136, 204, 238);"/><title>BECCS → Land Use &amp; deg.
BECCS
12.0</title><text class="label" dy="0.35em" x="5" y="143.71002132196162"/></g><g class="link" style="opacity: 0.8;"><path d="M1,40 A0 0 0 0 0 1,40 L169,40 A0 0 0 0 0 169,40 L169,60.8955223880597 A0 0 0 0 0 169,60.8955223880597 L1,60.8955223880597 A0 0 0 0 0 1,60.8955223880597 Z" style="fill: rgb(51, 34, 136);"/><title>ARR → Freshwater use
ARR
14.0</title><text class="label" dy="0.35em" x="5" y="50.44776119402985"/></g></g><g class="nodes"><g class="node" transform="translate(0,40)"><title>ARR</title><line x1="0" x2="0" y1="0" y2="49.25373134328359" style="display: inline; stroke: rgb(0, 0, 0);"/><rect class="node-body" width="1" height="49.25373134328359" style="fill: none;"/><text class="node-value" dy=".35em" text-anchor="middle" transform="translate(0.5,24.626865671641795) rotate(-90)" style="display: none;"/><text class="node-title" dy=".35em" text-anchor="end" transform="translate(-4,24.626865671641795)" style="display: inline;">ARR</text><rect class="node-click-target" x="-5" y="-5" width="10" height="54.25373134328359" style="fill: none; visibility: hidden; pointer-events: all;"/></g><g class="node" transform="translate(0,106.39658848614073)"><title>BECCS</title><line x1="0" x2="0" y1="0" y2="74.62686567164178" style="display: inline; stroke: rgb(0, 0, 0);"/><rect class="node-body" width="1" height="74.62686567164178" style="fill: none;"/><text class="node-value" dy=".35em" text-anchor="middle" transform="translate(0.5,37.31343283582089) rotate(-90)" style="display: none;"/><text class="node-title" dy=".35em" text-anchor="end" transform="translate(-4,37.31343283582089)" style="display: inline;">BECCS</text><rect class="node-click-target" x="-5" y="-5" width="10" height="79.62686567164178" style="fill: none; visibility: hidden; pointer-events: all;"/></g><g class="node" transform="translate(0,198.16631130063968)"><title>DACCS</title><line x1="0" x2="0" y1="0" y2="26.86567164179104" style="display: inline; stroke: rgb(0, 0, 0);"/><rect class="node-body" width="1" height="26.86567164179104" style="fill: none;"/><text class="node-value" dy=".35em" text-anchor="middle" transform="translate(0.5,13.43283582089552) rotate(-90)" style="display: none;"/><text class="node-title" dy=".35em" text-anchor="end" transform="translate(-4,13.43283582089552)" style="display: inline;">DACCS</text><rect class="node-click-target" x="-5" y="-5" width="10" height="31.86567164179104" style="fill: none; visibility: hidden; pointer-events: all;"/></g><g class="node" transform="translate(0,242.17484008528788)"><title>Biochar</title><line x1="0" x2="0" y1="0" y2="14.925373134328368" style="display: inline; stroke: rgb(0, 0, 0);"/><rect class="node-body" width="1" height="14.925373134328368" style="fill: none;"/><text class="node-value" dy=".35em" text-anchor="middle" transform="translate(0.5,7.462686567164184) rotate(-90)" style="display: none;"/><text class="node-title" dy=".35em" text-anchor="end" transform="translate(-4,7.462686567164184)" style="display: inline;">Biochar</text><rect class="node-click-target" x="-5" y="-5" width="10" height="19.925373134328368" style="fill: none; visibility: hidden; pointer-events: all;"/></g><g class="node" transform="translate(0,274.24307036247336)"><title>EW</title><line x1="0" x2="0" y1="0" y2="14.925373134328368" style="display: inline; stroke: rgb(0, 0, 0);"/><rect class="node-body" width="1" height="14.925373134328368" style="fill: none;"/><text class="node-value" dy=".35em" text-anchor="middle" transform="translate(0.5,7.462686567164184) rotate(-90)" style="display: none;"/><text class="node-title" dy=".35em" text-anchor="end" transform="translate(-4,7.462686567164184)" style="display: inline;">EW</text><rect class="node-click-target" x="-5" y="-5" width="10" height="19.925373134328368" style="fill: none; visibility: hidden; pointer-events: all;"/></g><g class="node" transform="translate(0,306.31130063965884)"><title>Ocean IF</title><line x1="0" x2="0" y1="0" y2="8.955223880597032" style="display: inline; stroke: rgb(0, 0, 0);"/><rect class="node-body" width="1" height="8.955223880597032" style="fill: none;"/><text class="node-value" dy=".35em" text-anchor="middle" transform="translate(0.5,4.477611940298516) rotate(-90)" style="display: none;"/><text class="node-title" dy=".35em" text-anchor="end" transform="translate(-4,4.477611940298516)" style="display: inline;">Ocean IF</text><rect class="node-click-target" x="-5" y="-5" width="10" height="13.955223880597032" style="fill: none; visibility: hidden; pointer-events: all;"/></g><g class="node" transform="translate(0,332.409381663113)"><title>SCS</title><line x1="0" x2="0" y1="0" y2="7.462686567164155" style="display: inline; stroke: rgb(0, 0, 0);"/><rect class="node-body" width="1" height="7.462686567164155" style="fill: none;"/><text class="node-value" dy=".35em" text-anchor="middle" transform="translate(0.5,3.7313432835820777) rotate(-90)" style="display: none;"/><text class="node-title" dy=".35em" text-anchor="end" transform="translate(-4,3.7313432835820777)" style="display: inline;">SCS</text><rect class="node-click-target" x="-5" y="-5" width="10" height="12.462686567164155" style="fill: none; visibility: hidden; pointer-events: all;"/></g><g class="node" transform="translate(0,357.0149253731343)"><title>Ocean AE</title><line x1="0" x2="0" y1="0" y2="2.9850746268656962" style="display: inline; stroke: rgb(0, 0, 0);"/><rect class="node-body" width="1" height="2.9850746268656962" style="fill: none;"/><text class="node-value" dy=".35em" text-anchor="middle" transform="translate(0.5,1.4925373134328481) rotate(-90)" style="display: none;"/><text class="node-title" dy=".35em" text-anchor="end" transform="translate(-4,1.4925373134328481)" style="display: inline;">Ocean AE</text><rect class="node-click-target" x="-5" y="-5" width="10" height="7.985074626865696" style="fill: none; visibility: hidden; pointer-events: all;"/></g><g class="node" transform="translate(169,40)"><title>Freshwater use</title><line x1="0" x2="0" y1="0" y2="44.776119402985074" style="display: inline; stroke: rgb(0, 0, 0);"/><rect class="node-body" width="1" height="44.776119402985074" style="fill: none;"/><text class="node-value" dy=".35em" text-anchor="middle" transform="translate(0.5,22.388059701492537) rotate(-90)" style="display: none;"/><text class="node-title" dy=".35em" text-anchor="start" transform="translate(5,22.388059701492537)" style="display: inline;">Freshwater use</text><rect class="node-click-target" x="-5" y="-5" width="10" height="49.776119402985074" style="fill: none; visibility: hidden; pointer-events: all;"/></g><g class="node" transform="translate(169,99.77611940298507)"><title>Biodiv. &amp; ES func.</title><line x1="0" x2="0" y1="0" y2="34.32835820895522" style="display: inline; stroke: rgb(0, 0, 0);"/><rect class="node-body" width="1" height="34.32835820895522" style="fill: none;"/><text class="node-value" dy=".35em" text-anchor="middle" transform="translate(0.5,17.16417910447761) rotate(-90)" style="display: none;"/><text class="node-title" dy=".35em" text-anchor="start" transform="translate(5,17.16417910447761)" style="display: inline;">Biodiv. &amp; ES func.</text><rect class="node-click-target" x="-5" y="-5" width="10" height="39.32835820895522" style="fill: none; visibility: hidden; pointer-events: all;"/></g><g class="node" transform="translate(169,149.1044776119403)"><title>Land Use &amp; deg.</title><line x1="0" x2="0" y1="0" y2="34.32835820895522" style="display: inline; stroke: rgb(0, 0, 0);"/><rect class="node-body" width="1" height="34.32835820895522" style="fill: none;"/><text class="node-value" dy=".35em" text-anchor="middle" transform="translate(0.5,17.16417910447761) rotate(-90)" style="display: none;"/><text class="node-title" dy=".35em" text-anchor="start" transform="translate(5,17.16417910447761)" style="display: inline;">Land Use &amp; deg.</text><rect class="node-click-target" x="-5" y="-5" width="10" height="39.32835820895522" style="fill: none; visibility: hidden; pointer-events: all;"/></g><g class="node" transform="translate(169,198.43283582089552)"><title>Acidification</title><line x1="0" x2="0" y1="0" y2="10.447761194029852" style="display: inline; stroke: rgb(0, 0, 0);"/><rect class="node-body" width="1" height="10.447761194029852" style="fill: none;"/><text class="node-value" dy=".35em" text-anchor="middle" transform="translate(0.5,5.223880597014926) rotate(-90)" style="display: none;"/><text class="node-title" dy=".35em" text-anchor="start" transform="translate(5,5.223880597014926)" style="display: inline;">Acidification</text><rect class="node-click-target" x="-5" y="-5" width="10" height="15.447761194029852" style="fill: none; visibility: hidden; pointer-events: all;"/></g><g class="node" transform="translate(169,223.88059701492537)"><title>Eutro. &amp; biogeochem.</title><line x1="0" x2="0" y1="0" y2="22.38805970149255" style="display: inline; stroke: rgb(0, 0, 0);"/><rect class="node-body" width="1" height="22.38805970149255" style="fill: none;"/><text class="node-value" dy=".35em" text-anchor="middle" transform="translate(0.5,11.194029850746276) rotate(-90)" style="display: none;"/><text class="node-title" dy=".35em" text-anchor="start" transform="translate(5,11.194029850746276)" style="display: inline;">Eutro. &amp; biogeochem.</text><rect class="node-click-target" x="-5" y="-5" width="10" height="27.38805970149255" style="fill: none; visibility: hidden; pointer-events: all;"/></g><g class="node" transform="translate(169,261.2686567164179)"><title>Air pollution</title><line x1="0" x2="0" y1="0" y2="19.402985074626883" style="display: inline; stroke: rgb(0, 0, 0);"/><rect class="node-body" width="1" height="19.402985074626883" style="fill: none;"/><text class="node-value" dy=".35em" text-anchor="middle" transform="translate(0.5,9.701492537313442) rotate(-90)" style="display: none;"/><text class="node-title" dy=".35em" text-anchor="start" transform="translate(5,9.701492537313442)" style="display: inline;">Air pollution</text><rect class="node-click-target" x="-5" y="-5" width="10" height="24.402985074626883" style="fill: none; visibility: hidden; pointer-events: all;"/></g><g class="node" transform="translate(169,295.6716417910448)"><title>Human toxicity</title><line x1="0" x2="0" y1="0" y2="13.432835820895548" style="display: inline; stroke: rgb(0, 0, 0);"/><rect class="node-body" width="1" height="13.432835820895548" style="fill: none;"/><text class="node-value" dy=".35em" text-anchor="middle" transform="translate(0.5,6.716417910447774) rotate(-90)" style="display: none;"/><text class="node-title" dy=".35em" text-anchor="start" transform="translate(5,6.716417910447774)" style="display: inline;">Human toxicity</text><rect class="node-click-target" x="-5" y="-5" width="10" height="18.432835820895548" style="fill: none; visibility: hidden; pointer-events: all;"/></g><g class="node" transform="translate(169,324.10447761194035)"><title>Ecotoxicity</title><line x1="0" x2="0" y1="0" y2="14.925373134328368" style="display: inline; stroke: rgb(0, 0, 0);"/><rect class="node-body" width="1" height="14.925373134328368" style="fill: none;"/><text class="node-value" dy=".35em" text-anchor="middle" transform="translate(0.5,7.462686567164184) rotate(-90)" style="display: none;"/><text class="node-title" dy=".35em" text-anchor="start" transform="translate(5,7.462686567164184)" style="display: inline;">Ecotoxicity</text><rect class="node-click-target" x="-5" y="-5" width="10" height="19.925373134328368" style="fill: none; visibility: hidden; pointer-events: all;"/></g><g class="node" transform="translate(169,354.0298507462687)"><title>M &amp; m depletion</title><line x1="0" x2="0" y1="0" y2="5.970149253731336" style="display: inline; stroke: rgb(0, 0, 0);"/><rect class="node-body" width="1" height="5.970149253731336" style="fill: none;"/><text class="node-value" dy=".35em" text-anchor="middle" transform="translate(0.5,2.985074626865668) rotate(-90)" style="display: none;"/><text class="node-title" dy=".35em" text-anchor="start" transform="translate(5,2.985074626865668)" style="display: inline;">M &amp; m depletion</text><rect class="node-click-target" x="-5" y="-5" width="10" height="10.970149253731336" style="fill: none; visibility: hidden; pointer-events: all;"/></g></g><g class="slice-titles"/></g></svg>