<?xml version="1.0" standalone="no"?><!DOCTYPE svg PUBLIC "-//W3C//DTD SVG 1.1//EN" "http://www.w3.org/Graphics/SVG/1.1/DTD/svg11.dtd"><svg xmlns="http://www.w3.org/2000/svg" width="480" height="350" viewBox="0 0 480 350" style="font-family: &quot;Helvetica Neue&quot;, Helvetica, Arial, sans-serif;"><g class="sankey" transform="translate(140,0)"><g class="groups"><g class="group" transform="translate(0,35)" style="display: none;"><rect x="-10" y="-20" width="21" height="310" style="fill: rgb(238, 238, 238); stroke: rgb(187, 187, 187); stroke-width: 0.5;"/><text x="-10" y="-25" style="fill: rgb(153, 153, 153);"/></g><g class="group" transform="translate(169,35)" style="display: none;"><rect x="-10" y="-20" width="21" height="310" style="fill: rgb(238, 238, 238); stroke: rgb(187, 187, 187); stroke-width: 0.5;"/><text x="-10" y="-25" style="fill: rgb(153, 153, 153);"/></g></g><g class="links"><g class="link" style="opacity: 0.8;"><path d="M1,53.229166666666664 A78.74172480620153 78.74172480620153 0.4385032016622952 0 1 34.43253614360347,60.67906338253079 L137.1154291186538,108.83254215667691 A75.09589147286819 75.09589147286819 0.4385032016622952 0 0 169,115.9375 L169,119.58333333333334 A78.74172480620153 78.74172480620153 0.4385032016622952 0 1 135.56746385639653,112.13343661746921 L32.88457088134621,63.979957843323085 A75.09589147286819 75.09589147286819 0.4385032016622952 0 0 1,56.87499999999999 Z" style="fill: rgb(51, 34, 136);"/><title>Biomaterials → Air pollution
Biomaterials
1.00</title><text class="label" dy="0.35em" x="5" y="55.05208333333333"/></g><g class="link" style="opacity: 0.8;"><path d="M1,64.16666666666667 A52.249460784313726 52.249460784313726 0.9918593321116544 0 1 44.73513577243019,87.82864677816428 L128.3165898041303,215.69742549183064 A48.6036274509804 48.6036274509804 0.9918593321116544 0 0 169,237.70833333333331 L169,241.35416666666663 A52.249460784313726 52.249460784313726 0.9918593321116544 0 1 125.2648642275698,217.69218655516903 L41.68341019586969,89.82340784150267 A48.6036274509804 48.6036274509804 0.9918593321116544 0 0 1,67.81250000000001 Z" style="fill: rgb(51, 34, 136);"/><title>Biomaterials → Human toxicity
Biomaterials
1.00</title><text class="label" dy="0.35em" x="5" y="65.98958333333334"/></g><g class="link" style="opacity: 0.8;"><path d="M1,130.52083333333334 A89.4739410621762 89.4739410621762 0.628267546376542 0 1 53.587772403060235,147.60615427548157 L133.7451770818474,205.83767390769233 A59.98329656862746 59.98329656862746 0.628267546376542 0 0 169,217.29166666666666 L169,220.93749999999997 A63.62912990196079 63.62912990196079 0.628267546376542 0 1 131.60236039939466,208.78732428694863 L51.4449557206075,150.55580465473787 A85.82810772884285 85.82810772884285 0.628267546376542 0 0 1,134.16666666666666 Z" style="fill: rgb(136, 204, 238);"/><title>Hydrogen
 carriers → Biodiv. &amp; ES func.
Hydrogen
 carriers
1.00</title><text class="label" dy="0.35em" x="5" y="132.34375"/></g><g class="link" style="opacity: 0.8;"><path d="M1,222.39583333333334 A76.79414559925095 76.79414559925095 0.45252653558511313 0 1 34.57740733557102,230.1255270420488 L137.01669375059473,279.9289433143473 A73.14831226591761 73.14831226591761 0.45252653558511313 0 0 169,287.29166666666663 L169,290.9375 A76.79414559925095 76.79414559925095 0.45252653558511313 0 1 135.422592664429,283.20780629128456 L32.98330624940528,233.404390018986 A73.14831226591761 73.14831226591761 0.45252653558511313 0 0 1,226.04166666666666 Z" style="fill: rgb(17, 119, 51);"/><title>Diet change → Ecotoxicity
Diet change
1.00</title><text class="label" dy="0.35em" x="5" y="224.21875"/></g><g class="link" style="opacity: 0.8;"><path d="M1,218.75 A121.24574754901953 121.24574754901953 0.2670731729127678 0 1 32.99790552195886,223.04847164689187 L137.96426455746305,251.76828246328873 A117.59991421568618 117.59991421568618 0.2670731729127678 0 0 169,255.93750000000003 L169,259.58333333333337 A121.24574754901953 121.24574754901953 0.2670731729127678 0 1 137.00209447804113,255.28486168644147 L32.035735442536954,226.56505087004462 A117.59991421568618 117.59991421568618 0.2670731729127678 0 0 1,222.39583333333331 Z" style="fill: rgb(17, 119, 51);"/><title>Diet change → Human toxicity
Diet change
1.00</title><text class="label" dy="0.35em" x="5" y="220.57291666666666"/></g><g class="link" style="opacity: 0.8;"><path d="M1,270.52083333333337 A63.4833527131783 63.4833527131783 0.9598401390438657 0 0 52.999206232624786,243.45476529217257 L122.97339701806722,143.54060611244913 A56.19168604651162 56.19168604651162 0.9598401390438657 0 1 169,119.58333333333333 L169,123.22916666666667 A52.54585271317829 52.54585271317829 0.9598401390438657 0 0 125.95969864341323,145.6320418147599 L55.98550785797079,245.54620099448334 A67.12918604651163 67.12918604651163 0.9598401390438657 0 1 1,274.16666666666674 Z" style="fill: rgb(221, 204, 119);"/><title>Agricultural 
management → Air pollution
Agricultural 
management
1.00</title><text class="label" dy="0.35em" x="5" y="272.34375000000006"/></g><g class="link" style="opacity: 0.8;"><path d="M1,281.4583333333333 A77.20797941767067 77.20797941767067 0.4243649313050568 0 0 32.78977762481269,274.61001653796643 L135.709079205816,228.10920074917695 A80.85381275100401 80.85381275100401 0.4243649313050568 0 1 169,220.9375 L169,224.58333333333331 A77.20797941767067 77.20797941767067 0.4243649313050568 0 0 137.2102223751873,231.43165012870017 L34.290920794184,277.9324659174897 A80.85381275100401 80.85381275100401 0.4243649313050568 0 1 1,285.1041666666667 Z" style="fill: rgb(221, 204, 119);"/><title>Agricultural 
management → Biodiv. &amp; ES func.
Agricultural 
management
1.00</title><text class="label" dy="0.35em" x="5" y="283.28125"/></g><g class="link" style="opacity: 0.8;"><path d="M1,274.1666666666667 A67.12918604651163 67.12918604651163 0.712890603175977 0 0 44.90404292280788,257.8189992494695 L131.13669123741815,183.2650671272716 A57.89291666666666 57.89291666666666 0.712890603175977 0 1 169,169.16666666666666 L169,172.81249999999997 A54.24708333333333 54.24708333333333 0.712890603175977 0 0 133.5211507040526,186.02304713924082 L47.288502389442336,260.5769792614388 A70.77501937984498 70.77501937984498 0.712890603175977 0 1 1,277.81250000000006 Z" style="fill: rgb(221, 204, 119);"/><title>Agricultural 
management → Freshwater use
Agricultural 
management
1.00</title><text class="label" dy="0.35em" x="5" y="275.98958333333337"/></g><g class="link" style="opacity: 0.8;"><path d="M1,277.8125 A70.77501937984498 70.77501937984498 0.5372689222826332 0 0 37.22206098055849,267.84098106657785 L134.10041523435643,210.1282896966245 A68.19100628930815 68.19100628930815 0.5372689222826332 0 1 169,200.52083333333331 L169,204.16666666666663 A64.5451729559748 64.5451729559748 0.5372689222826332 0 0 135.96632213882788,213.26046020895143 L39.08796788502993,270.9731515789047 A74.42085271317832 74.42085271317832 0.5372689222826332 0 1 1,281.45833333333337 Z" style="fill: rgb(221, 204, 119);"/><title>Agricultural 
management → Land Use &amp; deg.
Agricultural 
management
1.00</title><text class="label" dy="0.35em" x="5" y="279.6354166666667"/></g><g class="link" style="opacity: 0.8;"><path d="M1,311.3541666666667 A48.90001937984496 48.90001937984496 1.0427602297510203 0 0 43.239749914101466,287.0918302652062 L123.61098572605722,149.30042739819496 A52.54585271317829 52.54585271317829 1.0427602297510203 0 1 169,123.22916666666666 L169,126.875 A48.90001937984496 48.90001937984496 1.0427602297510203 0 0 126.76025008589853,151.13733640146043 L46.38901427394278,288.92873926847176 A52.54585271317829 52.54585271317829 1.0427602297510203 0 1 1,315.00000000000006 Z" style="fill: rgb(204, 102, 119);"/><title>Waste-to-energy → Air pollution
Waste-to-energy
1.00</title><text class="label" dy="0.35em" x="5" y="313.17708333333337"/></g><g class="link" style="opacity: 0.8;"><path d="M1,45.9375 A110.09441091954022 110.09441091954022 0.30240487997270016 0 1 33.78796730195009,50.93325005306282 L138.38361367338308,83.56429030494444 A102.80274425287357 102.80274425287357 0.30240487997270016 0 0 169,88.22916666666667 L169,95.52083333333333 A110.09441091954022 110.09441091954022 0.30240487997270016 0 1 136.21203269804988,90.52508328027052 L31.61638632661692,57.89404302838889 A102.80274425287357 102.80274425287357 0.30240487997270016 0 0 1,53.22916666666667 Z" style="fill: rgb(51, 34, 136);"/><title>Biomaterials → Acidification
Biomaterials
2.00</title><text class="label" dy="0.35em" x="5" y="49.583333333333336"/></g><g class="link" style="opacity: 0.8;"><path d="M1,56.875 A59.5411274509804 59.5411274509804 0.8165811786794034 0 1 44.39411961444285,75.64731288615258 L133.64090958463416,170.64114384518857 A48.516253531073446 48.516253531073446 0.8165811786794034 0 0 169,185.9375 L169,193.22916666666669 A55.80792019774012 55.80792019774012 0.8165811786794034 0 1 128.32667606121825,175.6338710394563 L39.07988609102694,80.64004008042028 A52.249460784313726 52.249460784313726 0.8165811786794034 0 0 1,64.16666666666667 Z" style="fill: rgb(51, 34, 136);"/><title>Biomaterials → Land Use &amp; deg.
Biomaterials
2.00</title><text class="label" dy="0.35em" x="5" y="60.520833333333336"/></g><g class="link" style="opacity: 0.8;"><path d="M1,123.22916666666667 A96.76560772884285 96.76560772884285 0.5096121317926876 0 1 48.20600831037052,135.5248056578953 L136.15178764602433,184.67326933350932 A67.33416666666666 67.33416666666666 0.5096121317926876 0 0 169,193.22916666666666 L169,200.52083333333334 A74.62583333333332 74.62583333333332 0.5096121317926876 0 1 132.59463045617161,191.0384115553656 L44.64885112051783,141.8899478797516 A89.4739410621762 89.4739410621762 0.5096121317926876 0 0 1,130.52083333333334 Z" style="fill: rgb(136, 204, 238);"/><title>Hydrogen
 carriers → Land Use &amp; deg.
Hydrogen
 carriers
2.00</title><text class="label" dy="0.35em" x="5" y="126.875"/></g><g class="link" style="opacity: 0.8;"><path d="M1,263.2291666666667 A56.19168604651163 56.19168604651163 0.9994398040077467 0 0 48.2666581481479,237.42446152079495 L123.5383008660728,120.3401412248368 A54.04590942028985 54.04590942028985 0.9994398040077467 0 1 169,95.52083333333334 L169,102.8125 A46.75424275362318 46.75424275362318 0.9994398040077467 0 0 129.67181882775665,124.28328212917683 L54.40017610983173,241.36760242513495 A63.4833527131783 63.4833527131783 0.9994398040077467 0 1 1,270.5208333333333 Z" style="fill: rgb(221, 204, 119);"/><title>Agricultural 
management → Acidification
Agricultural 
management
2.00</title><text class="label" dy="0.35em" x="5" y="266.875"/></g><g class="link" style="opacity: 0.8;"><path d="M1,35 A0 0 0 0 0 1,35 L169,35 A0 0 0 0 0 169,35 L169,45.9375 A0 0 0 0 0 169,45.9375 L1,45.9375 A0 0 0 0 0 1,45.9375 Z" style="fill: rgb(51, 34, 136);"/><title>Biomaterials → Eutro. &amp; biogeochem.
Biomaterials
3.00</title><text class="label" dy="0.35em" x="5" y="40.46875"/></g><g class="link" style="opacity: 0.8;"><path d="M1,112.29166666666667 A162.41657894736844 162.41657894736844 0.20033950332963735 0 1 33.321233009980745,115.54014889336278 L138.85535196882995,136.97027791826423 A151.47907894736844 151.47907894736844 0.20033950332963735 0 0 169,140 L169,150.9375 A162.41657894736844 162.41657894736844 0.20033950332963735 0 1 136.67876699001926,147.68901777330387 L31.144648031170046,126.25888874840246 A151.47907894736844 151.47907894736844 0.20033950332963735 0 0 1,123.22916666666667 Z" style="fill: rgb(136, 204, 238);"/><title>Hydrogen
 carriers → Freshwater use
Hydrogen
 carriers
3.00</title><text class="label" dy="0.35em" x="5" y="117.76041666666667"/></g><g class="link" style="opacity: 0.8;"><path d="M1,163.33333333333337 A56.66144106217617 56.66144106217617 0.8606113332396392 0 1 43.963043482486995,183.0529850782012 L134.33022049528685,288.14938206218477 A45.72394106217617 45.72394106217617 0.8606113332396392 0 0 169,304.0625 L169,315 A56.66144106217617 56.66144106217617 0.8606113332396392 0 1 126.036956517513,295.2803482551322 L35.66977950471315,190.18395127114863 A45.72394106217617 45.72394106217617 0.8606113332396392 0 0 1,174.27083333333337 Z" style="fill: rgb(136, 204, 238);"/><title>Hydrogen
 carriers → M &amp; m depletion
Hydrogen
 carriers
3.00</title><text class="label" dy="0.35em" x="5" y="168.80208333333337"/></g><g class="link" style="opacity: 0.8;"><path d="M1,252.29166666666669 A45.25418604651163 45.25418604651163 1.0427602297510201 0 0 40.090485554260155,229.8382545952741 L120.46172136621593,92.04685172826282 A56.19168604651163 56.19168604651163 1.0427602297510201 0 1 169,64.16666666666667 L169,75.10416666666667 A45.25418604651163 45.25418604651163 1.0427602297510201 0 0 129.90951444573986,97.55757873805925 L49.538278633784074,235.34898160507052 A56.19168604651163 56.19168604651163 1.0427602297510201 0 1 1,263.2291666666667 Z" style="fill: rgb(221, 204, 119);"/><title>Agricultural 
management → Eutro. &amp; biogeochem.
Agricultural 
management
3.00</title><text class="label" dy="0.35em" x="5" y="257.7604166666667"/></g><g class="link" style="opacity: 0.8;"><path d="M1,148.75000000000003 A71.24477439550951 71.24477439550951 0.8102019133269359 0 1 52.61159390434644,170.88203416122943 L136.07084030195372,258.5876826770403 A45.45549509803922 45.45549509803922 0.8102019133269359 0 0 169,272.7083333333333 L169,287.2916666666667 A60.03882843137255 60.03882843137255 0.8102019133269359 0 1 125.50628894842795,268.64073523881615 L42.047042550820656,180.93508672300524 A56.66144106217617 56.66144106217617 0.8102019133269359 0 0 1,163.33333333333334 Z" style="fill: rgb(136, 204, 238);"/><title>Hydrogen
 carriers → Ecotoxicity
Hydrogen
 carriers
4.00</title><text class="label" dy="0.35em" x="5" y="156.04166666666669"/></g><g class="link" style="opacity: 0.8;"><path d="M1,134.16666666666669 A85.82810772884285 85.82810772884285 0.7594880150514357 0 1 60.09696500849566,157.7532062669791 L133.0236207299524,226.99542093062334 A52.249460784313726 52.249460784313726 0.7594880150514357 0 0 169,241.35416666666666 L169,255.93749999999997 A66.83279411764705 66.83279411764705 0.7594880150514357 0 1 122.98226292173862,237.5710884971903 L50.0556072002819,168.32887383354606 A71.24477439550951 71.24477439550951 0.7594880150514357 0 0 1,148.75 Z" style="fill: rgb(136, 204, 238);"/><title>Hydrogen
 carriers → Human toxicity
Hydrogen
 carriers
4.00</title><text class="label" dy="0.35em" x="5" y="141.45833333333334"/></g><g class="link" style="opacity: 0.8;"><path d="M1,94.0625 A86.07507575757577 86.07507575757577 0.34219050624656866 0 0 29.882612208695456,89.07203054149018 L134.00056538845385,51.98486192945347 A104.30424242424243 104.30424242424243 0.34219050624656866 0 1 169,45.9375 L169,64.16666666666667 A86.07507575757577 86.07507575757577 0.34219050624656866 0 0 140.11738779130454,69.15713612517649 L35.99943461154616,106.2443047372132 A104.30424242424243 104.30424242424243 0.34219050624656866 0 1 1,112.29166666666666 Z" style="fill: rgb(136, 204, 238);"/><title>Hydrogen
 carriers → Eutro. &amp; biogeochem.
Hydrogen
 carriers
5.00</title><text class="label" dy="0.35em" x="5" y="103.17708333333333"/></g><g class="link" style="opacity: 0.8;"><path d="M1,200.52083333333334 A83.70644607843137 83.70644607843137 0.3520309002398718 0 0 29.862390363833374,195.387484034697 L133.85210417046173,157.188764158328 A101.93561274509803 101.93561274509803 0.3520309002398718 0 1 169,150.9375 L169,169.16666666666669 A83.70644607843137 83.70644607843137 0.3520309002398718 0 0 140.13760963616662,174.30001596530303 L36.14789582953827,212.49873584167202 A101.93561274509803 101.93561274509803 0.3520309002398718 0 1 1,218.75000000000003 Z" style="fill: rgb(17, 119, 51);"/><title>Diet change → Freshwater use
Diet change
5.00</title><text class="label" dy="0.35em" x="5" y="209.63541666666669"/></g></g><g class="nodes"><g class="node" transform="translate(0,35)"><title>Biomaterials</title><line x1="0" x2="0" y1="0" y2="32.8125" style="display: inline; stroke: rgb(0, 0, 0);"/><rect class="node-body" width="1" height="32.8125" style="fill: none;"/><text class="node-value" dy=".35em" text-anchor="middle" transform="translate(0.5,16.40625) rotate(-90)" style="display: none;"/><text class="node-title" dy=".35em" text-anchor="end" transform="translate(-4,16.40625)" style="display: inline;">Biomaterials</text><rect class="node-click-target" x="-5" y="-5" width="10" height="37.8125" style="fill: none; visibility: hidden; pointer-events: all;"/></g><g class="node" transform="translate(0,94.0625)"><title>Hydrogen
 carriers</title><line x1="0" x2="0" y1="0" y2="80.20833333333334" style="display: inline; stroke: rgb(0, 0, 0);"/><rect class="node-body" width="1" height="80.20833333333334" style="fill: none;"/><text class="node-value" dy=".35em" text-anchor="middle" transform="translate(0.5,40.10416666666667) rotate(-90)" style="display: none;"/><text class="node-title" dy=".35em" text-anchor="end" transform="translate(-4,40.10416666666667)" style="display: inline;"><tspan x="0" dy="-0.33000000000000007em">Hydrogen</tspan><tspan x="0" dy="1.1em"> carriers</tspan></text><rect class="node-click-target" x="-5" y="-5" width="10" height="85.20833333333334" style="fill: none; visibility: hidden; pointer-events: all;"/></g><g class="node" transform="translate(0,200.52083333333334)"><title>Diet change</title><line x1="0" x2="0" y1="0" y2="25.520833333333343" style="display: inline; stroke: rgb(0, 0, 0);"/><rect class="node-body" width="1" height="25.520833333333343" style="fill: none;"/><text class="node-value" dy=".35em" text-anchor="middle" transform="translate(0.5,12.760416666666671) rotate(-90)" style="display: none;"/><text class="node-title" dy=".35em" text-anchor="end" transform="translate(-4,12.760416666666671)" style="display: inline;">Diet change</text><rect class="node-click-target" x="-5" y="-5" width="10" height="30.520833333333343" style="fill: none; visibility: hidden; pointer-events: all;"/></g><g class="node" transform="translate(0,252.29166666666669)"><title>Agricultural 
management</title><line x1="0" x2="0" y1="0" y2="32.8125" style="display: inline; stroke: rgb(0, 0, 0);"/><rect class="node-body" width="1" height="32.8125" style="fill: none;"/><text class="node-value" dy=".35em" text-anchor="middle" transform="translate(0.5,16.40625) rotate(-90)" style="display: none;"/><text class="node-title" dy=".35em" text-anchor="end" transform="translate(-4,16.40625)" style="display: inline;"><tspan x="0" dy="-0.33000000000000007em">Agricultural </tspan><tspan x="0" dy="1.1em">management</tspan></text><rect class="node-click-target" x="-5" y="-5" width="10" height="37.8125" style="fill: none; visibility: hidden; pointer-events: all;"/></g><g class="node" transform="translate(0,311.3541666666667)"><title>Waste-to-energy</title><line x1="0" x2="0" y1="0" y2="3.6458333333333144" style="display: inline; stroke: rgb(0, 0, 0);"/><rect class="node-body" width="1" height="3.6458333333333144" style="fill: none;"/><text class="node-value" dy=".35em" text-anchor="middle" transform="translate(0.5,1.8229166666666572) rotate(-90)" style="display: none;"/><text class="node-title" dy=".35em" text-anchor="end" transform="translate(-4,1.8229166666666572)" style="display: inline;">Waste-to-energy</text><rect class="node-click-target" x="-5" y="-5" width="10" height="8.645833333333314" style="fill: none; visibility: hidden; pointer-events: all;"/></g><g class="node" transform="translate(169,35)"><title>Eutro. &amp; biogeochem.</title><line x1="0" x2="0" y1="0" y2="40.10416666666667" style="display: inline; stroke: rgb(0, 0, 0);"/><rect class="node-body" width="1" height="40.10416666666667" style="fill: none;"/><text class="node-value" dy=".35em" text-anchor="middle" transform="translate(0.5,20.052083333333336) rotate(-90)" style="display: none;"/><text class="node-title" dy=".35em" text-anchor="start" transform="translate(5,20.052083333333336)" style="display: inline;">Eutro. &amp; biogeochem.</text><rect class="node-click-target" x="-5" y="-5" width="10" height="45.10416666666667" style="fill: none; visibility: hidden; pointer-events: all;"/></g><g class="node" transform="translate(169,88.22916666666667)"><title>Acidification</title><line x1="0" x2="0" y1="0" y2="14.583333333333329" style="display: inline; stroke: rgb(0, 0, 0);"/><rect class="node-body" width="1" height="14.583333333333329" style="fill: none;"/><text class="node-value" dy=".35em" text-anchor="middle" transform="translate(0.5,7.291666666666664) rotate(-90)" style="display: none;"/><text class="node-title" dy=".35em" text-anchor="start" transform="translate(5,7.291666666666664)" style="display: inline;">Acidification</text><rect class="node-click-target" x="-5" y="-5" width="10" height="19.58333333333333" style="fill: none; visibility: hidden; pointer-events: all;"/></g><g class="node" transform="translate(169,115.9375)"><title>Air pollution</title><line x1="0" x2="0" y1="0" y2="10.9375" style="display: inline; stroke: rgb(0, 0, 0);"/><rect class="node-body" width="1" height="10.9375" style="fill: none;"/><text class="node-value" dy=".35em" text-anchor="middle" transform="translate(0.5,5.46875) rotate(-90)" style="display: none;"/><text class="node-title" dy=".35em" text-anchor="start" transform="translate(5,5.46875)" style="display: inline;">Air pollution</text><rect class="node-click-target" x="-5" y="-5" width="10" height="15.9375" style="fill: none; visibility: hidden; pointer-events: all;"/></g><g class="node" transform="translate(169,140)"><title>Freshwater use</title><line x1="0" x2="0" y1="0" y2="32.8125" style="display: inline; stroke: rgb(0, 0, 0);"/><rect class="node-body" width="1" height="32.8125" style="fill: none;"/><text class="node-value" dy=".35em" text-anchor="middle" transform="translate(0.5,16.40625) rotate(-90)" style="display: none;"/><text class="node-title" dy=".35em" text-anchor="start" transform="translate(5,16.40625)" style="display: inline;">Freshwater use</text><rect class="node-click-target" x="-5" y="-5" width="10" height="37.8125" style="fill: none; visibility: hidden; pointer-events: all;"/></g><g class="node" transform="translate(169,185.9375)"><title>Land Use &amp; deg.</title><line x1="0" x2="0" y1="0" y2="18.229166666666657" style="display: inline; stroke: rgb(0, 0, 0);"/><rect class="node-body" width="1" height="18.229166666666657" style="fill: none;"/><text class="node-value" dy=".35em" text-anchor="middle" transform="translate(0.5,9.114583333333329) rotate(-90)" style="display: none;"/><text class="node-title" dy=".35em" text-anchor="start" transform="translate(5,9.114583333333329)" style="display: inline;">Land Use &amp; deg.</text><rect class="node-click-target" x="-5" y="-5" width="10" height="23.229166666666657" style="fill: none; visibility: hidden; pointer-events: all;"/></g><g class="node" transform="translate(169,217.29166666666666)"><title>Biodiv. &amp; ES func.</title><line x1="0" x2="0" y1="0" y2="7.291666666666657" style="display: inline; stroke: rgb(0, 0, 0);"/><rect class="node-body" width="1" height="7.291666666666657" style="fill: none;"/><text class="node-value" dy=".35em" text-anchor="middle" transform="translate(0.5,3.6458333333333286) rotate(-90)" style="display: none;"/><text class="node-title" dy=".35em" text-anchor="start" transform="translate(5,3.6458333333333286)" style="display: inline;">Biodiv. &amp; ES func.</text><rect class="node-click-target" x="-5" y="-5" width="10" height="12.291666666666657" style="fill: none; visibility: hidden; pointer-events: all;"/></g><g class="node" transform="translate(169,237.70833333333331)"><title>Human toxicity</title><line x1="0" x2="0" y1="0" y2="21.875" style="display: inline; stroke: rgb(0, 0, 0);"/><rect class="node-body" width="1" height="21.875" style="fill: none;"/><text class="node-value" dy=".35em" text-anchor="middle" transform="translate(0.5,10.9375) rotate(-90)" style="display: none;"/><text class="node-title" dy=".35em" text-anchor="start" transform="translate(5,10.9375)" style="display: inline;">Human toxicity</text><rect class="node-click-target" x="-5" y="-5" width="10" height="26.875" style="fill: none; visibility: hidden; pointer-events: all;"/></g><g class="node" transform="translate(169,272.7083333333333)"><title>Ecotoxicity</title><line x1="0" x2="0" y1="0" y2="18.229166666666686" style="display: inline; stroke: rgb(0, 0, 0);"/><rect class="node-body" width="1" height="18.229166666666686" style="fill: none;"/><text class="node-value" dy=".35em" text-anchor="middle" transform="translate(0.5,9.114583333333343) rotate(-90)" style="display: none;"/><text class="node-title" dy=".35em" text-anchor="start" transform="translate(5,9.114583333333343)" style="display: inline;">Ecotoxicity</text><rect class="node-click-target" x="-5" y="-5" width="10" height="23.229166666666686" style="fill: none; visibility: hidden; pointer-events: all;"/></g><g class="node" transform="translate(169,304.0625)"><title>M &amp; m depletion</title><line x1="0" x2="0" y1="0" y2="10.9375" style="display: inline; stroke: rgb(0, 0, 0);"/><rect class="node-body" width="1" height="10.9375" style="fill: none;"/><text class="node-value" dy=".35em" text-anchor="middle" transform="translate(0.5,5.46875) rotate(-90)" style="display: none;"/><text class="node-title" dy=".35em" text-anchor="start" transform="translate(5,5.46875)" style="display: inline;">M &amp; m depletion</text><rect class="node-click-target" x="-5" y="-5" width="10" height="15.9375" style="fill: none; visibility: hidden; pointer-events: all;"/></g></g><g class="slice-titles"/></g></svg>