<?xml version="1.0" standalone="no"?><!DOCTYPE svg PUBLIC "-//W3C//DTD SVG 1.1//EN" "http://www.w3.org/Graphics/SVG/1.1/DTD/svg11.dtd"><svg xmlns="http://www.w3.org/2000/svg" width="480" height="350" viewBox="0 0 480 350" style="font-family: &quot;Helvetica Neue&quot;, Helvetica, Arial, sans-serif;"><g class="sankey" transform="translate(140,0)"><g class="groups"><g class="group" transform="translate(0,35)" style="display: none;"><rect x="-10" y="-20" width="21" height="310" style="fill: rgb(238, 238, 238); stroke: rgb(187, 187, 187); stroke-width: 0.5;"/><text x="-10" y="-25" style="fill: rgb(153, 153, 153);"/></g><g class="group" transform="translate(169,35)" style="display: none;"><rect x="-10" y="-20" width="21" height="310.00000000000006" style="fill: rgb(238, 238, 238); stroke: rgb(187, 187, 187); stroke-width: 0.5;"/><text x="-10" y="-25" style="fill: rgb(153, 153, 153);"/></g></g><g class="links"><g class="link" style="opacity: 0.8;"><path d="M1,85.65789473684211 A72.19105263157896 72.19105263157896 0.822064927077834 0 1 53.88377268341627,108.70777657626188 L131.08052431868816,191.78384903380388 A51.763456458731305 51.763456458731305 0.822064927077834 0 0 169,208.31140350877195 L169,210.6140350877193 A54.066088037678675 54.066088037678675 0.822064927077834 0 1 129.39372463152802,193.35127335534608 L52.196972996256136,110.27520089780411 A69.88842105263159 69.88842105263159 0.822064927077834 0 0 1,87.96052631578948 Z" style="fill: rgb(0, 167, 108);"/><title>Wind → Ecotoxicity
Wind
1.00</title><text class="label" dy="0.35em" x="5" y="86.8092105263158"/></g><g class="link" style="opacity: 0.8;"><path d="M1,101.7763157894737 A56.07263157894737 56.07263157894737 1.022969702507464 0 1 48.86687875641486,128.64446260482617 L126.88113902294998,256.5117805074743 A49.33923906150919 49.33923906150919 1.022969702507464 0 0 169,280.15350877192986 L169,282.45614035087726 A51.64187064045656 51.64187064045656 1.022969702507464 0 1 124.91547799534186,257.71106734260104 L46.90121772880673,129.8437494399529 A53.77 53.77 1.022969702507464 0 0 1,104.07894736842107 Z" style="fill: rgb(0, 167, 108);"/><title>Wind → Env. effects of mining
Wind
1.00</title><text class="label" dy="0.35em" x="5" y="102.92763157894738"/></g><g class="link" style="opacity: 0.8;"><path d="M1,74.14473684210526 A83.7042105263158 83.7042105263158 0.40649043882168767 0 1 34.095656137959956,80.9654484585008 L137.03102087878915,125.27552128556357 A80.85466405375139 80.85466405375139 0.40649043882168767 0 0 169,131.86403508771932 L169,134.16666666666666 A83.15729563269876 83.15729563269876 0.40649043882168767 0 1 136.12058755088276,127.39052089402759 L33.18522281005358,83.08044806696482 A81.40157894736844 81.40157894736844 0.40649043882168767 0 0 1,76.44736842105263 Z" style="fill: rgb(0, 167, 108);"/><title>Wind → Freshwater use
Wind
1.00</title><text class="label" dy="0.35em" x="5" y="75.29605263157895"/></g><g class="link" style="opacity: 0.8;"><path d="M1,216.44736842105266 A66.08253687241132 66.08253687241132 0.5459403401705725 0 1 35.31150509152249,226.05316408216507 L135.88407181705617,287.1543547893275 A63.779905293463955 63.779905293463955 0.5459403401705725 0 0 169,296.4254385964913 L169,298.7280701754387 A66.08253687241132 66.08253687241132 0.5459403401705725 0 1 134.68849490847748,289.12227451432625 L34.11592818294383,228.02108380716382 A63.779905293463955 63.779905293463955 0.5459403401705725 0 0 1,218.75 Z" style="fill: rgb(184, 0, 88);"/><title>Solar → Acidification
Solar
1.00</title><text class="label" dy="0.35em" x="5" y="217.59868421052633"/></g><g class="link" style="opacity: 0.8;"><path d="M1,214.1447368421053 A73.37303755174453 73.37303755174453 0.4741880385437651 0 1 34.50331943009341,222.2404412165911 L136.54809950925318,274.61449966475055 A71.07040597279716 71.07040597279716 0.4741880385437651 0 0 169,282.4561403508772 L169,284.7587719298246 A73.37303755174453 73.37303755174453 0.4741880385437651 0 1 135.49668056990657,276.6630675553387 L33.45190049074681,224.28900910717928 A71.07040597279716 71.07040597279716 0.4741880385437651 0 0 1,216.44736842105263 Z" style="fill: rgb(184, 0, 88);"/><title>Solar → Env. effects of mining
Solar
1.00</title><text class="label" dy="0.35em" x="5" y="215.29605263157896"/></g><g class="link" style="opacity: 0.8;"><path d="M1,181.9078947368421 A192.38667241379324 192.38667241379324 0.16142401625645286 0 0 31.9211309702145,179.40675463653247 L137.70878116592536,162.18019847462028 A194.68930399274058 194.68930399274058 0.16142401625645286 0 1 169,159.64912280701756 L169,161.9517543859649 A192.38667241379324 192.38667241379324 0.16142401625645286 0 0 138.0788690297855,164.45289448627454 L32.29121883407465,181.67945064818673 A194.68930399274058 194.68930399274058 0.16142401625645286 0 1 1,184.21052631578945 Z" style="fill: rgb(184, 0, 88);"/><title>Solar → Eutro. &amp; biogeochem.
Solar
1.00</title><text class="label" dy="0.35em" x="5" y="183.05921052631578"/></g><g class="link" style="opacity: 0.8;"><path d="M1,179.60526315789474 A98.83636557610244 98.83636557610244 0.3239506504433076 0 0 32.46101798387011,174.46431640102577 L136.80602170245155,139.4273841807772 A101.13899715504981 101.13899715504981 0.3239506504433076 0 1 169,134.16666666666669 L169,136.46929824561403 A98.83636557610244 98.83636557610244 0.3239506504433076 0 0 137.5389820161299,141.610245002483 L33.19397829754848,176.64717722273156 A101.13899715504981 101.13899715504981 0.3239506504433076 0 1 1,181.90789473684208 Z" style="fill: rgb(184, 0, 88);"/><title>Solar → Freshwater use
Solar
1.00</title><text class="label" dy="0.35em" x="5" y="180.7565789473684"/></g><g class="link" style="opacity: 0.8;"><path d="M1,310.39473684210526 A75.8247748236571 75.8247748236571 0.9778219936888294 0 0 63.880136308472636,276.94312492713607 L125.92890304573095,184.86515287158625 A51.93780452294127 51.93780452294127 0.9778219936888294 0 1 169,161.95175438596493 L169,164.25438596491227 A49.6351729439939 49.6351729439939 0.9778219936888294 0 0 127.83843443423999,186.15193259813788 L65.78966769698168,278.22990465368775 A78.12740640260446 78.12740640260446 0.9778219936888294 0 1 1,312.69736842105266 Z" style="fill: rgb(0, 140, 249);"/><title>Hydro → Eutro. &amp; biogeochem.
Hydro
1.00</title><text class="label" dy="0.35em" x="5" y="311.54605263157896"/></g><g class="link" style="opacity: 0.8;"><path d="M1,312.6973684210526 A78.12740640260446 78.12740640260446 0.8210937019708371 0 0 58.1807877073204,287.8076286499608 L128.98391966377153,211.76036524456634 A54.67487763669876 54.67487763669876 0.8210937019708371 0 1 169,194.34210526315792 L169,196.64473684210526 A52.37224605775139 52.37224605775139 0.8210937019708371 0 0 130.66919623375594,213.3294270887991 L59.86606427730484,289.3766904941936 A80.43003798155183 80.43003798155183 0.8210937019708371 0 1 1,315 Z" style="fill: rgb(0, 140, 249);"/><title>Hydro → Land Use &amp; deg.
Hydro
1.00</title><text class="label" dy="0.35em" x="5" y="313.8486842105263"/></g><g class="link" style="opacity: 0.8;"><path d="M1,104.07894736842107 A53.77 53.77 1.1006247244401548 0 1 48.93544734213455,133.48902560932163 L125.17010128352912,283.50355668180026 A49.16473684210526 49.16473684210526 1.1006247244401548 0 0 169,310.3947368421053 L169,315 A53.77 53.77 1.1006247244401548 0 1 121.06455265786546,285.58992175909947 L44.82989871647088,135.57539068662084 A49.16473684210526 49.16473684210526 1.1006247244401548 0 0 1,108.68421052631581 Z" style="fill: rgb(0, 167, 108);"/><title>Wind → Air pollution
Wind
2.00</title><text class="label" dy="0.35em" x="5" y="106.38157894736844"/></g><g class="link" style="opacity: 0.8;"><path d="M1,87.96052631578948 A69.88842105263159 69.88842105263159 0.9203865060535616 0 1 56.61970145213476,115.53062736862292 L130.2244153220661,212.27057855134737 A48.72310202645651 48.72310202645651 0.9203865060535616 0 0 169,231.49122807017545 L169,236.0964912280702 A53.32836518435125 53.32836518435125 0.9203865060535616 0 1 126.55938242974015,215.05912344996946 L52.95466855980881,118.31917226724504 A65.28315789473685 65.28315789473685 0.9203865060535616 0 0 1,92.56578947368422 Z" style="fill: rgb(0, 167, 108);"/><title>Wind → Human toxicity
Wind
2.00</title><text class="label" dy="0.35em" x="5" y="90.26315789473685"/></g><g class="link" style="opacity: 0.8;"><path d="M1,209.53947368421055 A88.3603880463872 88.3603880463872 0.3838291721867928 0 1 34.088646587556866,215.9687953228432 L137.63590361467038,257.78734771210867 A83.75512488849246 83.75512488849246 0.3838291721867928 0 0 169,263.88157894736844 L169,268.4868421052631 A88.3603880463872 88.3603880463872 0.3838291721867928 0 1 135.91135341244313,262.0575204666305 L32.36409638532962,220.238968077365 A83.75512488849246 83.75512488849246 0.3838291721867928 0 0 1,214.1447368421053 Z" style="fill: rgb(184, 0, 88);"/><title>Solar → M &amp; m depletion
Solar
2.00</title><text class="label" dy="0.35em" x="5" y="211.84210526315792"/></g><g class="link" style="opacity: 0.8;"><path d="M1,202.63157894736844 A134.9823080637373 134.9823080637373 0.2410273069573612 0 1 33.220325944227014,206.53347624633338 L138.4285910375775,232.3942785855751 A128.0744133268952 128.0744133268952 0.2410273069573612 0 0 169,236.0964912280702 L169,243.00438596491227 A134.9823080637373 134.9823080637373 0.2410273069573612 0 1 136.77967405577297,239.10248866594733 L31.571408962422513,213.2416863267056 A128.0744133268952 128.0744133268952 0.2410273069573612 0 0 1,209.53947368421052 Z" style="fill: rgb(184, 0, 88);"/><title>Solar → Human toxicity
Solar
3.00</title><text class="label" dy="0.35em" x="5" y="206.08552631578948"/></g><g class="link" style="opacity: 0.8;"><path d="M1,76.44736842105263 A81.40157894736844 81.40157894736844 0.6946395606339331 0 1 53.105847575291996,95.3093782654516 L135.15375448035965,163.66891115619248 A52.87578947368421 52.87578947368421 0.6946395606339331 0 0 169,175.92105263157896 L169,185.13157894736844 A62.08631578947369 62.08631578947369 0.6946395606339331 0 1 129.25801773293065,170.74521550372205 L47.21011082786301,102.38568261298117 A72.19105263157896 72.19105263157896 0.6946395606339331 0 0 1,85.65789473684211 Z" style="fill: rgb(0, 167, 108);"/><title>Wind → Land Use &amp; deg.
Wind
4.00</title><text class="label" dy="0.35em" x="5" y="81.05263157894737"/></g><g class="link" style="opacity: 0.8;"><path d="M1,92.56578947368422 A65.28315789473685 65.28315789473685 0.9799409591186921 0 1 55.21534390061886,121.48155551188601 L130.94239557685216,234.37302062994823 A45.82688995215311 45.82688995215311 0.9799409591186921 0 0 169,254.67105263157896 L169,263.88157894736844 A55.03741626794259 55.03741626794259 0.9799409591186921 0 1 123.29338061159288,239.5039430689537 L47.56632893535959,126.61247795089152 A56.07263157894737 56.07263157894737 0.9799409591186921 0 0 1,101.7763157894737 Z" style="fill: rgb(0, 167, 108);"/><title>Wind → M &amp; m depletion
Wind
4.00</title><text class="label" dy="0.35em" x="5" y="97.17105263157896"/></g><g class="link" style="opacity: 0.8;"><path d="M1,193.42105263157896 A253.42421052631573 253.42421052631573 0.1249645906758079 0 1 32.58669229575336,195.39723403318712 L138.5613040224144,208.70967662191703 A244.21368421052625 244.21368421052625 0.1249645906758079 0 0 169,210.61403508771932 L169,219.8245614035088 A253.42421052631573 253.42421052631573 0.1249645906758079 0 1 137.41330770424662,217.84838000190064 L31.438695977585603,204.53593741317073 A244.21368421052625 244.21368421052625 0.1249645906758079 0 0 1,202.63157894736844 Z" style="fill: rgb(184, 0, 88);"/><title>Solar → Ecotoxicity
Solar
4.00</title><text class="label" dy="0.35em" x="5" y="198.0263157894737"/></g><g class="link" style="opacity: 0.8;"><path d="M1,184.21052631578948 A1004.6052631578947 1004.6052631578947 0.00567403261760191 0 1 6.700132445233054,184.22669772788495 L163.35212810108865,185.11555579969294 A995.3947368421053 995.3947368421053 0.00567403261760191 0 0 169,185.13157894736844 L169,194.34210526315792 A1004.6052631578947 1004.6052631578947 0.00567403261760191 0 1 163.29986755476696,194.32593385106244 L6.647871898911337,193.43707577925446 A995.3947368421053 995.3947368421053 0.00567403261760191 0 0 1,193.42105263157896 Z" style="fill: rgb(184, 0, 88);"/><title>Solar → Land Use &amp; deg.
Solar
4.00</title><text class="label" dy="0.35em" x="5" y="188.81578947368422"/></g><g class="link" style="opacity: 0.8;"><path d="M1,298.88157894736844 A64.31161692892024 64.31161692892024 1.0141924061041798 0 0 55.604046671842696,268.5461619100106 L121.29553865576,162.9716331021673 A56.185415381554066 56.185415381554066 1.0141924061041798 0 1 169,136.46929824561406 L169,147.98245614035088 A44.67225748681723 44.67225748681723 1.0141924061041798 0 0 131.07083340102088,169.05410113351905 L65.37934141710357,274.6286299413624 A75.8247748236571 75.8247748236571 1.0141924061041798 0 1 1,310.3947368421053 Z" style="fill: rgb(0, 140, 249);"/><title>Hydro → Freshwater use
Hydro
5.00</title><text class="label" dy="0.35em" x="5" y="304.6381578947369"/></g><g class="link" style="opacity: 0.8;"><path d="M1,161.18421052631578 A52.48539473684211 52.48539473684211 0.6053525246571387 0 0 30.866918487933223,151.85763691235985 L121.92080948534723,88.84620449427581 A82.7326695604992 82.7326695604992 0.6053525246571387 0 1 169,74.14473684210526 L169,92.56578947368422 A64.31161692892024 64.31161692892024 0.6053525246571387 0 0 132.40334620185396,103.99386451298795 L41.34945520443995,167.005296931072 A70.90644736842106 70.90644736842106 0.6053525246571387 0 1 1,179.60526315789474 Z" style="fill: rgb(184, 0, 88);"/><title>Solar → Biodiv. &amp; ES func.
Solar
8.00</title><text class="label" dy="0.35em" x="5" y="170.39473684210526"/></g><g class="link" style="opacity: 0.8;"><path d="M1,271.25 A36.68003798155181 36.68003798155181 1.0102934545007662 0 0 32.06754779448545,254.0695174073653 L114.52883959158486,122.68856676489685 A64.31161692892024 64.31161692892024 1.0102934545007662 0 1 169,92.56578947368419 L169,120.19736842105263 A36.68003798155181 36.68003798155181 1.0102934545007662 0 0 137.93245220551455,137.37785101368735 L55.471160408415145,268.7588016561558 A64.31161692892024 64.31161692892024 1.0102934545007662 0 1 1,298.88157894736844 Z" style="fill: rgb(0, 140, 249);"/><title>Hydro → Biodiv. &amp; ES func.
Hydro
12.0</title><text class="label" dy="0.35em" x="5" y="285.0657894736842"/></g><g class="link" style="opacity: 0.8;"><path d="M1,35 A0 0 0 0 0 1,35 L169,35 A0 0 0 0 0 169,35 L169,74.14473684210526 A0 0 0 0 0 169,74.14473684210526 L1,74.14473684210526 A0 0 0 0 0 1,74.14473684210526 Z" style="fill: rgb(0, 167, 108);"/><title>Wind → Biodiv. &amp; ES func.
Wind
17.0</title><text class="label" dy="0.35em" x="5" y="54.57236842105263"/></g></g><g class="nodes"><g class="node" transform="translate(0,35)"><title>Wind</title><line x1="0" x2="0" y1="0" y2="73.6842105263158" style="display: inline; stroke: rgb(0, 0, 0);"/><rect class="node-body" width="1" height="73.6842105263158" style="fill: none;"/><text class="node-value" dy=".35em" text-anchor="middle" transform="translate(0.5,36.8421052631579) rotate(-90)" style="display: none;"/><text class="node-title" dy=".35em" text-anchor="end" transform="translate(-4,36.8421052631579)" style="display: inline;">Wind</text><rect class="node-click-target" x="-5" y="-5" width="10" height="78.6842105263158" style="fill: none; visibility: hidden; pointer-events: all;"/></g><g class="node" transform="translate(0,161.18421052631578)"><title>Solar</title><line x1="0" x2="0" y1="0" y2="57.56578947368422" style="display: inline; stroke: rgb(0, 0, 0);"/><rect class="node-body" width="1" height="57.56578947368422" style="fill: none;"/><text class="node-value" dy=".35em" text-anchor="middle" transform="translate(0.5,28.78289473684211) rotate(-90)" style="display: none;"/><text class="node-title" dy=".35em" text-anchor="end" transform="translate(-4,28.78289473684211)" style="display: inline;">Solar</text><rect class="node-click-target" x="-5" y="-5" width="10" height="62.56578947368422" style="fill: none; visibility: hidden; pointer-events: all;"/></g><g class="node" transform="translate(0,271.25)"><title>Hydro</title><line x1="0" x2="0" y1="0" y2="43.75" style="display: inline; stroke: rgb(0, 0, 0);"/><rect class="node-body" width="1" height="43.75" style="fill: none;"/><text class="node-value" dy=".35em" text-anchor="middle" transform="translate(0.5,21.875) rotate(-90)" style="display: none;"/><text class="node-title" dy=".35em" text-anchor="end" transform="translate(-4,21.875)" style="display: inline;">Hydro</text><rect class="node-click-target" x="-5" y="-5" width="10" height="48.75" style="fill: none; visibility: hidden; pointer-events: all;"/></g><g class="node" transform="translate(169,35)"><title>Biodiv. &amp; ES func.</title><line x1="0" x2="0" y1="0" y2="85.19736842105264" style="display: inline; stroke: rgb(0, 0, 0);"/><rect class="node-body" width="1" height="85.19736842105264" style="fill: none;"/><text class="node-value" dy=".35em" text-anchor="middle" transform="translate(0.5,42.59868421052632) rotate(-90)" style="display: none;"/><text class="node-title" dy=".35em" text-anchor="start" transform="translate(5,42.59868421052632)" style="display: inline;">Biodiv. &amp; ES func.</text><rect class="node-click-target" x="-5" y="-5" width="10" height="90.19736842105264" style="fill: none; visibility: hidden; pointer-events: all;"/></g><g class="node" transform="translate(169,131.86403508771932)"><title>Freshwater use</title><line x1="0" x2="0" y1="0" y2="16.11842105263159" style="display: inline; stroke: rgb(0, 0, 0);"/><rect class="node-body" width="1" height="16.11842105263159" style="fill: none;"/><text class="node-value" dy=".35em" text-anchor="middle" transform="translate(0.5,8.059210526315795) rotate(-90)" style="display: none;"/><text class="node-title" dy=".35em" text-anchor="start" transform="translate(5,8.059210526315795)" style="display: inline;">Freshwater use</text><rect class="node-click-target" x="-5" y="-5" width="10" height="21.11842105263159" style="fill: none; visibility: hidden; pointer-events: all;"/></g><g class="node" transform="translate(169,159.64912280701756)"><title>Eutro. &amp; biogeochem.</title><line x1="0" x2="0" y1="0" y2="4.60526315789474" style="display: inline; stroke: rgb(0, 0, 0);"/><rect class="node-body" width="1" height="4.60526315789474" style="fill: none;"/><text class="node-value" dy=".35em" text-anchor="middle" transform="translate(0.5,2.30263157894737) rotate(-90)" style="display: none;"/><text class="node-title" dy=".35em" text-anchor="start" transform="translate(5,2.30263157894737)" style="display: inline;">Eutro. &amp; biogeochem.</text><rect class="node-click-target" x="-5" y="-5" width="10" height="9.60526315789474" style="fill: none; visibility: hidden; pointer-events: all;"/></g><g class="node" transform="translate(169,175.92105263157896)"><title>Land Use &amp; deg.</title><line x1="0" x2="0" y1="0" y2="20.72368421052633" style="display: inline; stroke: rgb(0, 0, 0);"/><rect class="node-body" width="1" height="20.72368421052633" style="fill: none;"/><text class="node-value" dy=".35em" text-anchor="middle" transform="translate(0.5,10.361842105263165) rotate(-90)" style="display: none;"/><text class="node-title" dy=".35em" text-anchor="start" transform="translate(5,10.361842105263165)" style="display: inline;">Land Use &amp; deg.</text><rect class="node-click-target" x="-5" y="-5" width="10" height="25.72368421052633" style="fill: none; visibility: hidden; pointer-events: all;"/></g><g class="node" transform="translate(169,208.31140350877195)"><title>Ecotoxicity</title><line x1="0" x2="0" y1="0" y2="11.51315789473685" style="display: inline; stroke: rgb(0, 0, 0);"/><rect class="node-body" width="1" height="11.51315789473685" style="fill: none;"/><text class="node-value" dy=".35em" text-anchor="middle" transform="translate(0.5,5.756578947368425) rotate(-90)" style="display: none;"/><text class="node-title" dy=".35em" text-anchor="start" transform="translate(5,5.756578947368425)" style="display: inline;">Ecotoxicity</text><rect class="node-click-target" x="-5" y="-5" width="10" height="16.51315789473685" style="fill: none; visibility: hidden; pointer-events: all;"/></g><g class="node" transform="translate(169,231.49122807017545)"><title>Human toxicity</title><line x1="0" x2="0" y1="0" y2="11.51315789473685" style="display: inline; stroke: rgb(0, 0, 0);"/><rect class="node-body" width="1" height="11.51315789473685" style="fill: none;"/><text class="node-value" dy=".35em" text-anchor="middle" transform="translate(0.5,5.756578947368425) rotate(-90)" style="display: none;"/><text class="node-title" dy=".35em" text-anchor="start" transform="translate(5,5.756578947368425)" style="display: inline;">Human toxicity</text><rect class="node-click-target" x="-5" y="-5" width="10" height="16.51315789473685" style="fill: none; visibility: hidden; pointer-events: all;"/></g><g class="node" transform="translate(169,254.67105263157896)"><title>M &amp; m depletion</title><line x1="0" x2="0" y1="0" y2="13.81578947368422" style="display: inline; stroke: rgb(0, 0, 0);"/><rect class="node-body" width="1" height="13.81578947368422" style="fill: none;"/><text class="node-value" dy=".35em" text-anchor="middle" transform="translate(0.5,6.90789473684211) rotate(-90)" style="display: none;"/><text class="node-title" dy=".35em" text-anchor="start" transform="translate(5,6.90789473684211)" style="display: inline;">M &amp; m depletion</text><rect class="node-click-target" x="-5" y="-5" width="10" height="18.81578947368422" style="fill: none; visibility: hidden; pointer-events: all;"/></g><g class="node" transform="translate(169,280.15350877192986)"><title>Env. effects of mining</title><line x1="0" x2="0" y1="0" y2="4.60526315789474" style="display: inline; stroke: rgb(0, 0, 0);"/><rect class="node-body" width="1" height="4.60526315789474" style="fill: none;"/><text class="node-value" dy=".35em" text-anchor="middle" transform="translate(0.5,2.30263157894737) rotate(-90)" style="display: none;"/><text class="node-title" dy=".35em" text-anchor="start" transform="translate(5,2.30263157894737)" style="display: inline;">Env. effects of mining</text><rect class="node-click-target" x="-5" y="-5" width="10" height="9.60526315789474" style="fill: none; visibility: hidden; pointer-events: all;"/></g><g class="node" transform="translate(169,296.4254385964913)"><title>Acidification</title><line x1="0" x2="0" y1="0" y2="2.3026315789473415" style="display: inline; stroke: rgb(0, 0, 0);"/><rect class="node-body" width="1" height="2.3026315789473415" style="fill: none;"/><text class="node-value" dy=".35em" text-anchor="middle" transform="translate(0.5,1.1513157894736707) rotate(-90)" style="display: none;"/><text class="node-title" dy=".35em" text-anchor="start" transform="translate(5,1.1513157894736707)" style="display: inline;">Acidification</text><rect class="node-click-target" x="-5" y="-5" width="10" height="7.3026315789473415" style="fill: none; visibility: hidden; pointer-events: all;"/></g><g class="node" transform="translate(169,310.3947368421053)"><title>Air pollution</title><line x1="0" x2="0" y1="0" y2="4.60526315789474" style="display: inline; stroke: rgb(0, 0, 0);"/><rect class="node-body" width="1" height="4.60526315789474" style="fill: none;"/><text class="node-value" dy=".35em" text-anchor="middle" transform="translate(0.5,2.30263157894737) rotate(-90)" style="display: none;"/><text class="node-title" dy=".35em" text-anchor="start" transform="translate(5,2.30263157894737)" style="display: inline;">Air pollution</text><rect class="node-click-target" x="-5" y="-5" width="10" height="9.60526315789474" style="fill: none; visibility: hidden; pointer-events: all;"/></g></g><g class="slice-titles"/></g></svg>